<svg width="33" height="30" viewBox="0 0 33 30" fill="none" xmlns="http://www.w3.org/2000/svg">
<g filter="url(#filter0_d_11:136)">
<path d="M16.3775 0.912109C9.72125 0.912109 4.3775 5.31836 4.3775 10.6621C4.3775 12.9121 5.26812 14.9746 6.815 16.6152C6.15875 18.4434 4.70562 20.0371 4.65875 20.0371C4.33062 20.3652 4.28375 20.834 4.42437 21.2559C4.61187 21.6777 5.03375 21.9121 5.5025 21.9121C8.36187 21.9121 10.6587 20.7402 12.0181 19.7559C13.3775 20.1777 14.8306 20.4121 16.3775 20.4121C22.9869 20.4121 28.3775 16.0527 28.3775 10.6621C28.3775 5.31836 22.9869 0.912109 16.3775 0.912109ZM16.3775 18.1621C15.1119 18.1621 13.8462 17.9746 12.6744 17.5996L11.5962 17.2715L10.7056 17.9277C10.0494 18.3965 9.11187 18.9121 7.98687 19.2871C8.36187 18.7246 8.69 18.0684 8.92437 17.4121L9.44 16.0996L8.45562 15.0684C7.61187 14.1777 6.6275 12.6777 6.6275 10.6621C6.6275 6.53711 10.9869 3.16211 16.3775 3.16211C21.7212 3.16211 26.1275 6.53711 26.1275 10.6621C26.1275 14.834 21.7212 18.1621 16.3775 18.1621Z" fill="black"/>
</g>
<defs>
<filter id="filter0_d_11:136" x="0.283691" y="0.912109" width="32.0938" height="29" filterUnits="userSpaceOnUse" color-interpolation-filters="sRGB">
<feFlood flood-opacity="0" result="BackgroundImageFix"/>
<feColorMatrix in="SourceAlpha" type="matrix" values="0 0 0 0 0 0 0 0 0 0 0 0 0 0 0 0 0 0 127 0" result="hardAlpha"/>
<feOffset dy="4"/>
<feGaussianBlur stdDeviation="2"/>
<feComposite in2="hardAlpha" operator="out"/>
<feColorMatrix type="matrix" values="0 0 0 0 0 0 0 0 0 0 0 0 0 0 0 0 0 0 0.25 0"/>
<feBlend mode="normal" in2="BackgroundImageFix" result="effect1_dropShadow_11:136"/>
<feBlend mode="normal" in="SourceGraphic" in2="effect1_dropShadow_11:136" result="shape"/>
</filter>
</defs>
</svg>
