<svg width="36" height="33" viewBox="0 0 36 33" fill="none" xmlns="http://www.w3.org/2000/svg">
<g filter="url(#filter0_d_11:129)">
<path d="M22.8438 16.6829C22.75 16.7766 22.75 16.8704 22.75 16.9641V22.261H6.25V5.76099H17.5469C17.6406 5.76099 17.7344 5.76099 17.8281 5.66724L19.3281 4.16724C19.5625 3.93286 19.375 3.51099 19.0469 3.51099H6.25C4.98438 3.51099 4 4.54224 4 5.76099V22.261C4 23.5266 4.98438 24.511 6.25 24.511H22.75C23.9688 24.511 25 23.5266 25 22.261V15.4641C25 15.136 24.5781 14.9485 24.3438 15.1829L22.8438 16.6829ZM30.1562 7.26099C31.2344 6.18286 31.2344 4.44849 30.1562 3.37036L28.1406 1.35474C27.0625 0.276611 25.3281 0.276611 24.25 1.35474L11.9688 13.636L11.5 17.9016C11.3594 19.1204 12.3906 20.1516 13.6094 20.011L17.875 19.5422L30.1562 7.26099ZM25.5625 8.66724L16.8438 17.386L13.75 17.761L14.125 14.6672L22.8438 5.94849L25.5625 8.66724ZM28.5625 4.96411C28.7969 5.15161 28.7969 5.43286 28.6094 5.66724L27.1562 7.12036L24.4375 4.35474L25.8438 2.94849C26.0312 2.71411 26.3594 2.71411 26.5469 2.94849L28.5625 4.96411Z" fill="black"/>
</g>
<defs>
<filter id="filter0_d_11:129" x="0" y="0.276611" width="35.2344" height="32.2344" filterUnits="userSpaceOnUse" color-interpolation-filters="sRGB">
<feFlood flood-opacity="0" result="BackgroundImageFix"/>
<feColorMatrix in="SourceAlpha" type="matrix" values="0 0 0 0 0 0 0 0 0 0 0 0 0 0 0 0 0 0 127 0" result="hardAlpha"/>
<feOffset dy="4"/>
<feGaussianBlur stdDeviation="2"/>
<feComposite in2="hardAlpha" operator="out"/>
<feColorMatrix type="matrix" values="0 0 0 0 0 0 0 0 0 0 0 0 0 0 0 0 0 0 0.25 0"/>
<feBlend mode="normal" in2="BackgroundImageFix" result="effect1_dropShadow_11:129"/>
<feBlend mode="normal" in="SourceGraphic" in2="effect1_dropShadow_11:129" result="shape"/>
</filter>
</defs>
</svg>
