<svg width="36" height="33" viewBox="0 0 36 33" fill="none" xmlns="http://www.w3.org/2000/svg">
<g filter="url(#filter0_d_210_15010)">
<path d="M22.8438 17.1719C22.75 17.2656 22.75 17.3594 22.75 17.4531V22.75H6.25V6.25H17.5469C17.6406 6.25 17.7344 6.25 17.8281 6.15625L19.3281 4.65625C19.5625 4.42188 19.375 4 19.0469 4H6.25C4.98438 4 4 5.03125 4 6.25V22.75C4 24.0156 4.98438 25 6.25 25H22.75C23.9688 25 25 24.0156 25 22.75V15.9531C25 15.625 24.5781 15.4375 24.3438 15.6719L22.8438 17.1719ZM30.1562 7.75C31.2344 6.67188 31.2344 4.9375 30.1562 3.85938L28.1406 1.84375C27.0625 0.765625 25.3281 0.765625 24.25 1.84375L11.9688 14.125L11.5 18.3906C11.3594 19.6094 12.3906 20.6406 13.6094 20.5L17.875 20.0312L30.1562 7.75ZM25.5625 9.15625L16.8438 17.875L13.75 18.25L14.125 15.1562L22.8438 6.4375L25.5625 9.15625ZM28.5625 5.45312C28.7969 5.64062 28.7969 5.92188 28.6094 6.15625L27.1562 7.60938L24.4375 4.84375L25.8438 3.4375C26.0312 3.20312 26.3594 3.20312 26.5469 3.4375L28.5625 5.45312Z" fill="black"/>
</g>
<defs>
<filter id="filter0_d_210_15010" x="0" y="0.765625" width="35.2344" height="32.2344" filterUnits="userSpaceOnUse" color-interpolation-filters="sRGB">
<feFlood flood-opacity="0" result="BackgroundImageFix"/>
<feColorMatrix in="SourceAlpha" type="matrix" values="0 0 0 0 0 0 0 0 0 0 0 0 0 0 0 0 0 0 127 0" result="hardAlpha"/>
<feOffset dy="4"/>
<feGaussianBlur stdDeviation="2"/>
<feComposite in2="hardAlpha" operator="out"/>
<feColorMatrix type="matrix" values="0 0 0 0 0 0 0 0 0 0 0 0 0 0 0 0 0 0 0.25 0"/>
<feBlend mode="normal" in2="BackgroundImageFix" result="effect1_dropShadow_210_15010"/>
<feBlend mode="normal" in="SourceGraphic" in2="effect1_dropShadow_210_15010" result="shape"/>
</filter>
</defs>
</svg>
