<svg width="25" height="25" viewBox="0 0 25 25" fill="none" xmlns="http://www.w3.org/2000/svg">
<path d="M12.5 0C5.59476 0 0 5.59476 0 12.5C0 19.4052 5.59476 25 12.5 25C19.4052 25 25 19.4052 25 12.5C25 5.59476 19.4052 0 12.5 0ZM16.5323 8.46774C17.4244 8.46774 18.1452 9.18851 18.1452 10.0806C18.1452 10.9728 17.4244 11.6935 16.5323 11.6935C15.6401 11.6935 14.9194 10.9728 14.9194 10.0806C14.9194 9.18851 15.6401 8.46774 16.5323 8.46774ZM8.46774 8.46774C9.35988 8.46774 10.0806 9.18851 10.0806 10.0806C10.0806 10.9728 9.35988 11.6935 8.46774 11.6935C7.5756 11.6935 6.85484 10.9728 6.85484 10.0806C6.85484 9.18851 7.5756 8.46774 8.46774 8.46774ZM18.2863 17.0464C16.8498 18.7702 14.7429 19.7581 12.5 19.7581C10.2571 19.7581 8.1502 18.7702 6.71371 17.0464C6.02823 16.2248 7.26815 15.1966 7.95363 16.0131C9.08266 17.369 10.7359 18.1401 12.5 18.1401C14.2641 18.1401 15.9173 17.3639 17.0464 16.0131C17.7218 15.1966 18.9667 16.2248 18.2863 17.0464Z" fill="#00E0FF"/>
</svg>
