<svg width="22" height="24" viewBox="0 0 22 24" fill="none" xmlns="http://www.w3.org/2000/svg">
<path d="M5.30501 14.5035L4.57758 17.6222L1.91885 17.6868C1.12428 15.9943 0.673584 14.0578 0.673584 12C0.673584 10.0101 1.09497 8.13362 1.84191 6.48132H1.84248L4.2095 6.9797L5.2464 9.68176C5.02938 10.4084 4.91109 11.1884 4.91109 12C4.91117 12.8809 5.05011 13.7249 5.30501 14.5035Z" fill="#FBBB00"/>
<path d="M21.389 9.7583C21.509 10.4842 21.5716 11.2339 21.5716 12.0001C21.5716 12.8592 21.4929 13.6972 21.3431 14.5056C20.8344 17.2563 19.5053 19.6583 17.6641 21.3581L17.6636 21.3574L14.6822 21.1827L14.2602 18.1576C15.4819 17.3348 16.4367 16.0471 16.9396 14.5056H11.3523V9.7583H17.0212H21.389Z" fill="#518EF8"/>
<path d="M17.6633 21.3574L17.6639 21.358C15.8733 23.011 13.5986 24 11.1224 24C7.14319 24 3.68356 21.4457 1.9187 17.6868L5.30486 14.5035C6.18727 17.2081 8.45907 19.1334 11.1224 19.1334C12.2672 19.1334 13.3397 18.778 14.26 18.1576L17.6633 21.3574Z" fill="#28B446"/>
<path d="M17.792 2.76262L14.407 5.94525C13.4545 5.26153 12.3287 4.86656 11.1224 4.86656C8.39882 4.86656 6.08453 6.88017 5.24633 9.68175L1.84237 6.48131H1.8418C3.58082 2.63077 7.08408 0 11.1224 0C13.6578 0 15.9824 1.03716 17.792 2.76262Z" fill="#F14336"/>
</svg>
