<svg width="23" height="15" viewBox="0 0 23 15" fill="none" xmlns="http://www.w3.org/2000/svg">
<path d="M18.2461 2.75L16.5586 1.09766C16.207 0.746094 15.7148 0.5 15.1875 0.5H7.20703C6.67969 0.5 6.1875 0.710938 5.80078 1.09766L4.14844 2.75H0V11.75H2.25C2.84766 11.75 3.33984 11.2578 3.33984 10.625H3.69141L6.64453 13.332C7.73438 14.2109 9.24609 14.2109 10.3711 13.4727C10.793 13.8242 11.2852 14 11.8125 14C12.4453 14 13.043 13.7539 13.5352 13.1562C14.3086 13.4727 15.2227 13.2617 15.7852 12.5938L16.6992 11.4336C16.875 11.1875 17.0156 10.9414 17.0859 10.625H19.125C19.125 11.2578 19.6172 11.75 20.25 11.75H22.5V2.75H18.2461ZM1.6875 10.625C1.37109 10.625 1.125 10.3789 1.125 10.0625C1.125 9.74609 1.37109 9.5 1.6875 9.5C1.96875 9.5 2.25 9.74609 2.25 10.0625C2.25 10.3789 1.96875 10.625 1.6875 10.625ZM15.3984 10.3789L14.4492 11.5039C14.3789 11.6445 14.2031 11.6445 14.0625 11.5742L13.2188 10.8711L12.1641 12.1719C11.9531 12.418 11.6367 12.3125 11.5312 12.2422L10.2305 11.1523L9.70312 11.8203C9.21094 12.418 8.33203 12.4883 7.76953 12.0312L4.32422 8.9375H3.375V4.4375H4.81641L6.99609 2.29297C7.06641 2.25781 7.13672 2.22266 7.20703 2.1875H9.21094L7.83984 3.45312C6.78516 4.40234 6.75 5.98438 7.66406 7.00391C8.19141 7.56641 9.84375 8.44531 11.25 7.17969L11.5312 6.89844L15.3281 9.99219C15.4688 10.0977 15.4688 10.2734 15.3984 10.3789ZM19.125 8.9375H16.6641C16.5938 8.86719 16.4883 8.76172 16.418 8.69141L12.7969 5.73828L13.2188 5.35156C13.4648 5.14062 13.4648 4.78906 13.2539 4.54297L12.9023 4.15625C12.6914 3.91016 12.3047 3.91016 12.0938 4.12109L10.1602 5.87891C9.80859 6.19531 9.24609 6.23047 8.92969 5.87891C8.61328 5.52734 8.64844 5 8.96484 4.68359L11.2852 2.57422C11.5312 2.32812 11.8828 2.22266 12.2344 2.22266L15.1875 2.1875C15.2578 2.1875 15.3281 2.22266 15.3633 2.29297L17.543 4.4375H19.125V8.9375ZM20.8125 10.625C20.4961 10.625 20.25 10.3789 20.25 10.0625C20.25 9.74609 20.4961 9.5 20.8125 9.5C21.0938 9.5 21.375 9.74609 21.375 10.0625C21.375 10.3789 21.0938 10.625 20.8125 10.625Z" fill="black"/>
</svg>
