<svg width="20" height="20" viewBox="0 0 20 20" fill="none" xmlns="http://www.w3.org/2000/svg">
<path d="M10.0022 4.87336C7.16453 4.87336 4.87563 7.16226 4.87563 9.99997C4.87563 12.8377 7.16453 15.1266 10.0022 15.1266C12.8399 15.1266 15.1288 12.8377 15.1288 9.99997C15.1288 7.16226 12.8399 4.87336 10.0022 4.87336ZM10.0022 13.3329C8.16843 13.3329 6.66927 11.8382 6.66927 9.99997C6.66927 8.16171 8.16397 6.66701 10.0022 6.66701C11.8405 6.66701 13.3352 8.16171 13.3352 9.99997C13.3352 11.8382 11.836 13.3329 10.0022 13.3329ZM16.5343 4.66366C16.5343 5.32847 15.9989 5.85942 15.3385 5.85942C14.6737 5.85942 14.1428 5.324 14.1428 4.66366C14.1428 4.00331 14.6782 3.4679 15.3385 3.4679C15.9989 3.4679 16.5343 4.00331 16.5343 4.66366ZM19.9297 5.87727C19.8539 4.27548 19.488 2.85663 18.3146 1.68764C17.1456 0.51865 15.7267 0.152783 14.1249 0.0724706C12.4741 -0.0212272 7.52593 -0.0212272 5.87507 0.0724706C4.27775 0.148321 2.8589 0.514188 1.68544 1.68318C0.511991 2.85217 0.150586 4.27102 0.0702733 5.87281C-0.0234244 7.52367 -0.0234244 12.4718 0.0702733 14.1227C0.146124 15.7245 0.511991 17.1433 1.68544 18.3123C2.8589 19.4813 4.27328 19.8472 5.87507 19.9275C7.52593 20.0212 12.4741 20.0212 14.1249 19.9275C15.7267 19.8516 17.1456 19.4857 18.3146 18.3123C19.4835 17.1433 19.8494 15.7245 19.9297 14.1227C20.0234 12.4718 20.0234 7.52813 19.9297 5.87727ZM17.797 15.894C17.449 16.7685 16.7752 17.4422 15.8963 17.7947C14.58 18.3168 11.4568 18.1963 10.0022 18.1963C8.54769 18.1963 5.41997 18.3123 4.1082 17.7947C3.23369 17.4467 2.55996 16.773 2.20747 15.894C1.68544 14.5778 1.80591 11.4545 1.80591 9.99997C1.80591 8.54542 1.68991 5.4177 2.20747 4.10593C2.55549 3.23142 3.22922 2.55769 4.1082 2.20521C5.42443 1.68318 8.54769 1.80365 10.0022 1.80365C11.4568 1.80365 14.5845 1.68764 15.8963 2.20521C16.7708 2.55323 17.4445 3.22696 17.797 4.10593C18.319 5.42216 18.1985 8.54542 18.1985 9.99997C18.1985 11.4545 18.319 14.5822 17.797 15.894Z" fill="black"/>
</svg>
