<svg width="11" height="15" viewBox="0 0 11 15" fill="none" xmlns="http://www.w3.org/2000/svg">
<path d="M5.21267 14.3479C2.39052 14.3479 0.0945244 12.1049 0.0945244 9.34789C0.0945244 8.05349 0.600686 6.87239 1.42969 5.98356V3.69568C1.42969 1.65788 3.12673 0 5.21267 0C7.2986 0 8.9956 1.65788 8.9956 3.69568V5.98347C9.82465 6.87239 10.3308 8.05349 10.3308 9.34789C10.3308 12.1049 8.03481 14.3479 5.21267 14.3479ZM4.54508 9.56467V10.4349C4.54508 10.795 4.84398 11.087 5.21267 11.087C5.58135 11.087 5.88025 10.795 5.88025 10.4349V9.56467C6.15031 9.36619 6.32531 9.05058 6.32531 8.69571C6.32531 8.09636 5.82618 7.60875 5.21267 7.60875C4.59916 7.60875 4.10003 8.09636 4.10003 8.69571C4.10003 9.05058 4.27502 9.36619 4.54508 9.56467ZM7.66043 3.69568C7.66043 2.3771 6.56234 1.30436 5.21267 1.30436C3.86295 1.30436 2.76486 2.3771 2.76486 3.69568V4.95782C3.49244 4.56907 4.32656 4.34785 5.21267 4.34785C6.09873 4.34785 6.93285 4.56907 7.66043 4.95777V3.69568Z" fill="#00E0FF"/>
</svg>
