<svg width="87" height="27" viewBox="0 0 87 27" fill="none" xmlns="http://www.w3.org/2000/svg">
<path d="M33.85 0.907999L26.578 26H22.906L17.074 5.804L11.026 26L7.39003 26.036L0.37003 0.907999H3.86203L9.33403 22.184L15.382 0.907999H19.054L24.814 22.112L30.322 0.907999H33.85ZM45.7511 3.572V11.96H54.8951V14.66H45.7511V23.3H55.9751V26H42.4751V0.872H55.9751V3.572H45.7511ZM80.8042 20.42H69.8602L67.8442 26H64.3882L73.4602 1.052H77.2402L86.2762 26H82.8202L80.8042 20.42ZM79.8682 17.756L75.3322 5.084L70.7962 17.756H79.8682Z" fill="black"/>
</svg>
