<svg width="20" height="18" viewBox="0 0 20 18" fill="none" xmlns="http://www.w3.org/2000/svg">
<path d="M17.9442 4.92639C17.9569 5.10405 17.9569 5.28175 17.9569 5.4594C17.9569 10.8782 13.8326 17.1219 6.29444 17.1219C3.97209 17.1219 1.81473 16.4493 0 15.2818C0.329962 15.3198 0.64719 15.3325 0.989848 15.3325C2.90607 15.3325 4.67006 14.6853 6.0787 13.5813C4.27666 13.5432 2.7665 12.363 2.24618 10.7386C2.50001 10.7766 2.7538 10.802 3.02032 10.802C3.38833 10.802 3.75638 10.7513 4.099 10.6625C2.22083 10.2817 0.812152 8.63199 0.812152 6.6396V6.58886C1.35782 6.89343 1.99239 7.08378 2.66493 7.10914C1.56087 6.37308 0.837542 5.11675 0.837542 3.69541C0.837542 2.934 1.04055 2.23603 1.3959 1.62689C3.41369 4.1142 6.4467 5.73854 9.8477 5.91624C9.78426 5.61167 9.74617 5.29444 9.74617 4.97717C9.74617 2.71826 11.5736 0.878174 13.8452 0.878174C15.0254 0.878174 16.0914 1.3731 16.8401 2.17259C17.7665 1.99494 18.6548 1.65228 19.4416 1.18275C19.137 2.13455 18.4898 2.93404 17.6396 3.44162C18.4645 3.35283 19.264 3.12435 20 2.80713C19.4417 3.61928 18.7437 4.3426 17.9442 4.92639Z" fill="black"/>
</svg>
