<svg width="354" height="338" viewBox="0 0 354 338" fill="none" xmlns="http://www.w3.org/2000/svg">
<path d="M182.246 322.75L180.559 321.098C180.207 320.746 179.715 320.5 179.188 320.5H171.207C170.68 320.5 170.188 320.711 169.801 321.098L168.148 322.75H164V331.75H166.25C166.848 331.75 167.34 331.258 167.34 330.625H167.691L170.645 333.332C171.734 334.211 173.246 334.211 174.371 333.473C174.793 333.824 175.285 334 175.812 334C176.445 334 177.043 333.754 177.535 333.156C178.309 333.473 179.223 333.262 179.785 332.594L180.699 331.434C180.875 331.188 181.016 330.941 181.086 330.625H183.125C183.125 331.258 183.617 331.75 184.25 331.75H186.5V322.75H182.246ZM165.688 330.625C165.371 330.625 165.125 330.379 165.125 330.062C165.125 329.746 165.371 329.5 165.688 329.5C165.969 329.5 166.25 329.746 166.25 330.062C166.25 330.379 165.969 330.625 165.688 330.625ZM179.398 330.379L178.449 331.504C178.379 331.645 178.203 331.645 178.062 331.574L177.219 330.871L176.164 332.172C175.953 332.418 175.637 332.312 175.531 332.242L174.23 331.152L173.703 331.82C173.211 332.418 172.332 332.488 171.77 332.031L168.324 328.938H167.375V324.438H168.816L170.996 322.293C171.066 322.258 171.137 322.223 171.207 322.188H173.211L171.84 323.453C170.785 324.402 170.75 325.984 171.664 327.004C172.191 327.566 173.844 328.445 175.25 327.18L175.531 326.898L179.328 329.992C179.469 330.098 179.469 330.273 179.398 330.379ZM183.125 328.938H180.664C180.594 328.867 180.488 328.762 180.418 328.691L176.797 325.738L177.219 325.352C177.465 325.141 177.465 324.789 177.254 324.543L176.902 324.156C176.691 323.91 176.305 323.91 176.094 324.121L174.16 325.879C173.809 326.195 173.246 326.23 172.93 325.879C172.613 325.527 172.648 325 172.965 324.684L175.285 322.574C175.531 322.328 175.883 322.223 176.234 322.223L179.188 322.188C179.258 322.188 179.328 322.223 179.363 322.293L181.543 324.438H183.125V328.938ZM184.812 330.625C184.496 330.625 184.25 330.379 184.25 330.062C184.25 329.746 184.496 329.5 184.812 329.5C185.094 329.5 185.375 329.746 185.375 330.062C185.375 330.379 185.094 330.625 184.812 330.625Z" fill="black"/>
<g clip-path="url(#clip0_8:511)">
<path d="M318.163 155.459C318.498 156.768 318.811 158.083 319.104 159.405H219.602V155.459H318.163Z" fill="#E6E6E6"/>
<path d="M314.992 145.06C313.39 140.531 311.522 136.101 309.398 131.793C308.744 130.465 308.066 129.15 307.362 127.848C307.246 127.625 307.123 127.401 306.999 127.178V156.536H315.597V146.807L314.992 145.06Z" fill="#E6E6E6"/>
<path d="M309.397 131.793H306.999V127.848H307.362C308.067 129.148 308.745 130.463 309.397 131.793Z" fill="#CCCCCC"/>
<path d="M314.992 145.06H306.999V149.005H315.597V146.807L314.992 145.06Z" fill="#CCCCCC"/>
<path d="M302.343 122.47H293.746V156.537H302.343V122.47Z" fill="#E6E6E6"/>
<path d="M302.343 127.849H293.746V131.793H302.343V127.849Z" fill="#CCCCCC"/>
<path d="M302.343 145.062H293.746V149.006H302.343V145.062Z" fill="#CCCCCC"/>
<path d="M263.139 122.271H232.3C231.825 122.272 231.369 122.461 231.033 122.798C230.697 123.134 230.508 123.591 230.507 124.066V154.941C230.508 155.116 230.533 155.291 230.583 155.459C230.695 155.828 230.922 156.152 231.231 156.381C231.54 156.611 231.915 156.735 232.3 156.736H263.139C263.524 156.735 263.899 156.611 264.208 156.381C264.517 156.152 264.744 155.828 264.856 155.459C264.906 155.291 264.931 155.116 264.932 154.941V124.066C264.931 123.591 264.742 123.134 264.406 122.798C264.07 122.461 263.614 122.272 263.139 122.271Z" fill="#E6E6E6"/>
<path d="M260.948 124.465H234.491C234.016 124.466 233.561 124.655 233.224 124.992C232.888 125.328 232.699 125.785 232.698 126.26V152.747C232.699 153.223 232.888 153.679 233.224 154.015C233.561 154.352 234.016 154.541 234.491 154.542H260.948C261.423 154.541 261.879 154.352 262.215 154.015C262.551 153.679 262.74 153.223 262.741 152.747V126.26C262.74 125.785 262.551 125.328 262.215 124.992C261.879 124.655 261.423 124.466 260.948 124.465Z" fill="white"/>
<path d="M256.334 129.085H239.105C238.63 129.085 238.174 129.275 237.838 129.611C237.502 129.948 237.313 130.404 237.312 130.88V148.128C237.313 148.604 237.502 149.06 237.838 149.396C238.174 149.733 238.63 149.922 239.105 149.923H256.334C256.809 149.92 257.263 149.73 257.599 149.394C257.935 149.058 258.124 148.603 258.127 148.128V130.88C258.126 130.404 257.937 129.948 257.601 129.611C257.265 129.275 256.809 129.085 256.334 129.085Z" fill="#CCCCCC"/>
<path d="M255.272 145.085L251.633 138.775C251.563 138.654 251.462 138.553 251.341 138.483C251.22 138.413 251.082 138.376 250.943 138.376C250.803 138.376 250.665 138.413 250.544 138.483C250.423 138.553 250.322 138.654 250.252 138.775L247.595 143.383L244.111 137.341C244.041 137.22 243.94 137.119 243.819 137.049C243.698 136.979 243.56 136.942 243.42 136.942C243.281 136.942 243.143 136.979 243.022 137.049C242.901 137.119 242.8 137.22 242.73 137.341L239.091 143.651L234.762 151.158H243.112L242.284 152.592H259.601L255.272 145.085Z" fill="white"/>
<path d="M253.987 135.379C255.372 135.379 256.495 134.256 256.495 132.869C256.495 131.483 255.372 130.359 253.987 130.359C252.603 130.359 251.48 131.483 251.48 132.869C251.48 134.256 252.603 135.379 253.987 135.379Z" fill="white"/>
<path d="M321.968 183.334C321.94 181.786 321.879 180.247 321.785 178.715C321.745 177.981 321.697 177.251 321.638 176.521H304.815C304.34 176.522 303.885 176.711 303.548 177.048C303.212 177.384 303.023 177.84 303.022 178.316V209.19C303.022 209.332 303.039 209.473 303.074 209.609C303.168 210.001 303.391 210.349 303.707 210.599C304.023 210.849 304.413 210.985 304.815 210.986H320.323C320.402 210.531 320.478 210.068 320.546 209.609C320.589 209.338 320.633 209.063 320.673 208.792C320.769 208.141 320.86 207.491 320.944 206.841C321.064 205.955 321.171 205.066 321.267 204.172C321.617 200.969 321.843 197.732 321.944 194.459V194.455C321.98 193.223 321.999 191.985 322 190.742V185.955C322 185.077 321.992 184.204 321.968 183.334Z" fill="#E6E6E6"/>
<path d="M321.968 183.334C321.94 181.786 321.879 180.247 321.785 178.715H307.007C306.532 178.716 306.076 178.905 305.74 179.242C305.404 179.578 305.215 180.034 305.214 180.51V206.997C305.215 207.472 305.404 207.929 305.74 208.265C306.076 208.602 306.532 208.791 307.007 208.792H320.673C320.769 208.141 320.86 207.491 320.944 206.841C321.064 205.955 321.171 205.066 321.267 204.172C321.617 200.969 321.843 197.732 321.944 194.459V194.455C321.98 193.223 321.999 191.985 322 190.742V185.955C322 185.077 321.992 184.204 321.968 183.334Z" fill="white"/>
<path d="M321.968 183.334H311.621C311.146 183.335 310.69 183.524 310.354 183.861C310.018 184.197 309.829 184.653 309.828 185.129V202.377C309.829 202.853 310.018 203.309 310.354 203.646C310.69 203.982 311.146 204.172 311.621 204.172H321.267C321.618 200.969 321.843 197.732 321.944 194.459V194.455C321.98 193.223 321.999 191.985 322 190.742V185.955C322 185.077 321.992 184.204 321.968 183.334Z" fill="#CCCCCC"/>
<path d="M321.944 194.459C321.845 197.73 321.619 200.968 321.267 204.172C321.171 205.066 321.064 205.955 320.944 206.841H314.8L315.629 205.409H307.278L309.828 200.985L311.605 197.902L315.247 191.591C315.316 191.47 315.416 191.368 315.537 191.298C315.658 191.227 315.796 191.19 315.936 191.19C316.076 191.19 316.213 191.227 316.334 191.298C316.456 191.368 316.556 191.47 316.625 191.591L320.111 197.635L321.944 194.459Z" fill="white"/>
<path d="M291.755 105.259H219.602V101.314H288.177C289.396 102.602 290.589 103.917 291.755 105.259Z" fill="#E6E6E6"/>
<path d="M257.928 77.8984C260.868 79.5179 263.734 81.2531 266.526 83.104V102.387H257.928V77.8984Z" fill="#E6E6E6"/>
<path d="M266.524 90.9127H257.927V94.8573H266.524V90.9127Z" fill="#CCCCCC"/>
<path d="M279.778 93.2359V102.387H271.179V86.347C273.184 87.8109 275.143 89.3334 277.056 90.9143C277.973 91.6722 278.88 92.4461 279.778 93.2359Z" fill="#E6E6E6"/>
<path d="M279.778 93.2359V94.8554H271.179V90.9144H277.056C277.973 91.6723 278.88 92.4461 279.778 93.2359Z" fill="#CCCCCC"/>
<path d="M249.15 73.5026C251.425 74.5277 253.662 75.6207 255.86 76.7815L254.091 80.3556L248.214 92.2467L246.465 95.7809L243.727 101.314L243.126 102.53L240.675 101.314L235.424 98.7087L238.759 91.9595H238.763L240.508 88.4252L246.389 76.5342L248.118 73.0399L248.138 73L249.15 73.5026Z" fill="#E6E6E6"/>
<path d="M255.84 76.8174L254.091 80.3556L246.389 76.5342L248.118 73.0399L248.138 73L249.15 73.5026L255.84 76.8174Z" fill="#CCCCCC"/>
<path d="M240.508 88.4263L238.76 91.9614L246.464 95.78L248.212 92.2449L240.508 88.4263Z" fill="#CCCCCC"/>
<path d="M320.546 209.609C320.478 210.068 320.402 210.531 320.323 210.986C320.183 211.847 320.032 212.701 319.868 213.554H219.602V209.609H320.546Z" fill="#E6E6E6"/>
<path d="M266.524 176.619H257.927V210.686H266.524V176.619Z" fill="#E6E6E6"/>
<path d="M266.524 181.998H257.927V185.942H266.524V181.998Z" fill="#CCCCCC"/>
<path d="M266.524 199.211H257.927V203.155H266.524V199.211Z" fill="#CCCCCC"/>
<path d="M279.777 176.619H271.18V210.686H279.777V176.619Z" fill="#E6E6E6"/>
<path d="M279.777 181.998H271.18V185.942H279.777V181.998Z" fill="#CCCCCC"/>
<path d="M279.777 199.211H271.18V203.155H279.777V199.211Z" fill="#CCCCCC"/>
<path d="M250.52 176.478L235.422 207.008L243.126 210.827L258.224 180.296L250.52 176.478Z" fill="#E6E6E6"/>
<path d="M248.136 181.298L246.388 184.833L254.092 188.652L255.84 185.117L248.136 181.298Z" fill="#CCCCCC"/>
<path d="M240.508 196.724L238.76 200.259L246.464 204.078L248.212 200.543L240.508 196.724Z" fill="#CCCCCC"/>
<path d="M153.661 224.812C154.021 225.019 154.363 225.254 154.686 225.515L190.158 214.463L192.158 205.652L205.835 206.937L203.808 222.879C203.644 224.167 203.067 225.367 202.164 226.299C201.261 227.231 200.081 227.844 198.8 228.047L157.054 234.664C156.445 236.142 155.401 237.399 154.061 238.268C152.721 239.138 151.148 239.578 149.552 239.53C147.956 239.483 146.412 238.95 145.126 238.003C143.84 237.056 142.872 235.739 142.351 234.228C141.831 232.716 141.782 231.082 142.212 229.542C142.642 228.003 143.53 226.631 144.758 225.608C145.986 224.586 147.495 223.963 149.086 223.82C150.676 223.678 152.272 224.024 153.661 224.812Z" fill="#FFB8B8"/>
<path d="M212.155 212.222L211.92 208.201V208.197L211.856 207.096L211.163 195.257C211.37 192.789 210.593 190.339 209 188.444C207.407 186.549 205.129 185.363 202.664 185.145C201.955 185.082 201.241 185.1 200.537 185.201C198.443 185.497 196.511 186.493 195.054 188.027C193.597 189.56 192.7 191.542 192.508 193.65L191.07 199.641L188.556 210.12C188.378 210.853 188.451 211.625 188.765 212.311C189.079 212.997 189.614 213.557 190.285 213.901C190.672 214.105 191.096 214.23 191.532 214.268L195.724 214.643L199.76 215.002L204.417 215.417L204.752 215.445L205.613 215.525L208.493 215.78H208.501C208.983 215.819 209.466 215.755 209.921 215.593C210.376 215.431 210.791 215.174 211.139 214.839C211.393 214.591 211.606 214.306 211.773 213.993C212.063 213.45 212.196 212.837 212.155 212.222V212.222Z" fill="#6C63FF"/>
<path d="M251.081 163.466C251.081 177.119 238.471 175.054 222.917 175.054C207.363 175.054 194.754 177.119 194.754 163.466C194.754 149.814 200.913 125.614 222.917 125.614C245.679 125.614 251.081 149.814 251.081 163.466Z" fill="#2F2E41"/>
<path d="M236.224 169.474C243.625 162.064 243.625 150.051 236.224 142.642C228.823 135.232 216.823 135.232 209.422 142.642C202.021 150.051 202.021 162.064 209.422 169.474C216.823 176.883 228.823 176.883 236.224 169.474Z" fill="#FFB8B8"/>
<path d="M249.5 183.007C249.136 182.655 248.748 182.327 248.341 182.026C245.765 180.077 242.527 179.219 239.324 179.636L204.401 184.06C201.203 184.458 198.284 186.087 196.265 188.602C194.245 191.118 193.284 194.322 193.584 197.535C193.684 198.652 193.795 199.828 193.919 201.053C194.078 202.589 194.257 204.2 194.464 205.868C194.807 208.672 195.226 211.632 195.724 214.643C196.158 217.236 196.652 219.865 197.218 222.462C197.381 223.212 197.551 223.959 197.728 224.703C197.727 224.706 197.728 224.708 197.728 224.71C197.729 224.712 197.73 224.714 197.732 224.715C197.752 224.807 197.771 224.899 197.795 224.987C197.794 224.994 197.796 225.001 197.799 225.007C198.046 226.044 198.306 227.069 198.576 228.082C198.68 228.457 198.78 228.828 198.883 229.195C199.162 230.192 199.457 231.17 199.76 232.131C202.035 239.283 205.043 245.374 209.015 248.613C209.067 248.661 209.119 248.701 209.175 248.745L209.334 248.868L209.565 248.797L210.545 248.505L211.382 248.25L222.283 244.967L224.997 244.15L233.715 241.521H233.718L241.691 239.119L242.663 238.824L249.513 236.762L249.732 234.201L250.027 230.803L250.202 228.76L251.588 212.653L252.397 203.255L253.274 193.051C253.437 191.201 253.182 189.338 252.529 187.599C251.876 185.861 250.841 184.291 249.5 183.007Z" fill="#2F2E41"/>
<path d="M269.028 260.947C268.936 260.68 268.849 260.413 268.757 260.149C264.661 248.182 258.621 239.131 249.732 234.201C249.728 234.201 249.728 234.197 249.724 234.197L249.572 234.113L241.827 236.798L240.87 237.129L239.874 237.476L239.862 237.48L232.611 239.993L232.599 239.997L226.909 241.968H226.905L221.642 243.791H221.638L220.415 244.217L211.215 247.405L210.147 247.776L209.191 248.107L209.043 248.158L209.015 248.613L208.358 260.149L208.314 260.947L207.493 275.343L180.236 314H198.883C205.131 314.001 211.37 313.525 217.546 312.576L235.041 293.7C235.188 293.548 235.373 293.439 235.577 293.385C235.781 293.331 235.996 293.333 236.199 293.392C236.401 293.452 236.584 293.565 236.727 293.721C236.87 293.876 236.968 294.068 237.01 294.275L239.579 307.039C252.24 302.557 264.084 296.033 274.642 287.725C273.415 277.812 271.622 268.777 269.028 260.947Z" fill="#2F2E41"/>
<path d="M200.926 154.196H208.422L211.729 144.926L212.39 154.196H215.973L217.902 148.789L218.287 154.196H244.908C244.908 151.559 244.389 148.947 243.381 146.51C242.372 144.073 240.895 141.859 239.032 139.994C237.169 138.129 234.957 136.65 232.523 135.64C230.089 134.631 227.481 134.112 224.846 134.112H220.988C215.667 134.112 210.565 136.228 206.802 139.994C203.04 143.761 200.926 148.87 200.926 154.196Z" fill="#2F2E41"/>
<path d="M154.821 254.719C153.598 255.234 152.276 255.474 150.95 255.422C149.623 255.37 148.325 255.028 147.145 254.419C145.965 253.81 144.933 252.95 144.121 251.898C143.309 250.847 142.737 249.63 142.446 248.334L110.386 244.698L121.133 231.814L149.93 237.241C152.138 236.896 154.396 237.373 156.276 238.583C158.156 239.793 159.527 241.651 160.13 243.805C160.733 245.96 160.526 248.261 159.547 250.272C158.569 252.284 156.887 253.866 154.821 254.719L154.821 254.719Z" fill="#A0616A"/>
<path d="M137.536 230.87L123.985 228.445L123.001 228.27C122.215 228.129 121.467 227.823 120.807 227.373C120.147 226.922 119.589 226.337 119.171 225.656C118.753 224.974 118.484 224.212 118.381 223.419C118.278 222.625 118.344 221.819 118.574 221.054L125.228 198.919L125.427 198.261C126.258 195.447 126.11 192.435 125.008 189.717C123.905 186.999 121.914 184.736 119.359 183.298C117.63 182.337 115.703 181.788 113.727 181.694C111.751 181.6 109.78 181.963 107.968 182.756C106.155 183.549 104.55 184.749 103.276 186.264C102.003 187.779 101.095 189.568 100.625 191.492L92.1382 226.167L91.8234 227.452C91.2306 229.871 91.166 232.391 91.6339 234.837C92.1018 237.284 93.0912 239.601 94.5346 241.631C95.9781 243.66 97.8417 245.354 99.9983 246.597C102.155 247.84 104.554 248.602 107.032 248.833C107.06 248.837 107.083 248.837 107.111 248.841L112.192 249.291L118.781 249.878L127.069 250.616L134.803 251.306C135.816 251.398 136.826 251.105 137.634 250.486C138.441 249.867 138.987 248.966 139.162 247.963C139.174 247.907 139.182 247.851 139.189 247.796L140.831 235.526L140.847 235.414C140.989 234.375 140.723 233.322 140.106 232.474C139.488 231.627 138.567 231.053 137.536 230.87Z" fill="#CCCCCC"/>
<path d="M116.659 137.901C111.249 148.548 106.986 159.53 95.0537 159.53C89.3238 159.53 83.8285 157.252 79.7768 153.195C75.7251 149.139 73.4489 143.637 73.4489 137.901C73.4489 125.955 83.1225 116.421 95.0537 116.271C107.18 116.119 126.727 118.082 116.659 137.901Z" fill="#2F2E41"/>
<path d="M130.229 277.194L129.738 272.296L129.372 272.315L64.9487 275.423L65.116 280.381L65.3991 288.874C75.3676 296.476 86.4377 302.509 98.2262 306.764L98.6446 303.517C98.6812 303.252 98.808 303.009 99.0035 302.827C99.199 302.645 99.4513 302.537 99.7175 302.52C99.9838 302.503 100.248 302.579 100.465 302.734C100.681 302.89 100.838 303.116 100.908 303.373L102.179 308.116C112.448 311.432 123.112 313.365 133.89 313.864L130.229 277.194Z" fill="#2F2E41"/>
<path d="M109.518 154.395C116.919 146.985 116.919 134.972 109.518 127.562C102.117 120.153 90.1173 120.153 82.7163 127.562C75.3153 134.972 75.3153 146.985 82.7163 154.395C90.1173 161.804 102.117 161.804 109.518 154.395Z" fill="#A0616A"/>
<path d="M133.93 272.627L130.173 260.947L130.109 260.748L129.918 260.149L128.846 256.822C128.499 255.741 128.169 254.656 127.862 253.567C127.579 252.586 127.315 251.602 127.069 250.616C126.718 249.243 126.4 247.866 126.113 246.483C125.14 241.836 124.492 237.127 124.172 232.39C124.085 231.078 124.022 229.763 123.985 228.445C123.752 220.369 124.478 212.293 126.149 204.388C127.603 197.552 126.826 190.429 123.933 184.069C121.039 177.708 116.182 172.446 110.076 169.058C106.069 166.841 101.635 165.509 97.0707 165.153C96.7559 165.129 96.4411 165.109 96.1225 165.089C91.3014 164.784 86.4735 165.567 81.9951 167.38C77.5167 169.193 73.5022 171.99 70.248 175.564C68.505 177.465 66.9912 179.564 65.7376 181.818C62.2594 188.092 60.9537 195.342 62.0242 202.437L66.5026 232.542L65.4827 245.215L64.2795 260.149L64.2156 260.947L62.9326 276.871C62.8718 277.613 63.0513 278.355 63.4446 278.987C63.8378 279.62 64.4238 280.108 65.116 280.381C65.5214 280.544 65.9544 280.626 66.3911 280.625C66.4549 280.625 66.5146 280.625 66.5784 280.621L130.229 277.194L130.81 277.162C131.341 277.134 131.859 276.985 132.323 276.725C132.787 276.465 133.185 276.102 133.487 275.664C133.788 275.226 133.985 274.724 134.062 274.197C134.139 273.67 134.094 273.133 133.93 272.627L133.93 272.627Z" fill="#CCCCCC"/>
<path d="M116.227 130.256C111.897 133.244 106.756 134.835 101.497 134.813C103.373 136.116 105.509 136.996 107.757 137.392C100.764 138.894 93.5369 138.934 86.5275 137.511C84.9694 137.261 83.466 136.744 82.0832 135.983C80.7374 135.165 79.6115 133.863 79.34 132.31C78.8743 129.646 80.9477 127.226 83.1024 125.595C86.4014 123.136 90.2052 121.441 94.2385 120.635C98.2719 119.828 102.434 119.928 106.424 120.929C109.029 121.604 111.639 122.743 113.331 124.837C115.023 126.932 115.524 130.161 113.912 132.318L116.227 130.256Z" fill="#2F2E41"/>
<path d="M117.196 250.772C115.984 251.313 114.668 251.582 113.341 251.559C112.013 251.536 110.707 251.221 109.515 250.638C108.322 250.055 107.271 249.217 106.437 248.184C105.603 247.15 105.005 245.946 104.686 244.656L72.5542 241.717L83.0201 228.603L111.928 233.404C114.128 233.011 116.396 233.439 118.301 234.608C120.207 235.777 121.618 237.605 122.268 239.746C122.917 241.887 122.759 244.192 121.825 246.224C120.89 248.256 119.243 249.874 117.196 250.772L117.196 250.772Z" fill="#A0616A"/>
<path d="M99.4016 227.304L92.1381 226.167L84.8108 225.019C84.0217 224.895 83.2676 224.606 82.598 224.17C81.9284 223.734 81.3585 223.161 80.9258 222.489C80.493 221.817 80.2072 221.061 80.0871 220.27C79.967 219.48 80.0153 218.673 80.2288 217.902L86.5878 194.966C87.3573 192.135 87.1441 189.127 85.9831 186.433C84.8221 183.74 82.782 181.52 80.1969 180.139C78.4506 179.206 76.5112 178.694 74.5326 178.642C72.554 178.59 70.5905 179 68.7977 179.84C66.9995 180.666 65.4175 181.9 64.1764 183.443C62.9353 184.986 62.069 186.796 61.6457 188.731L53.6252 224.875C53.0849 227.313 53.0771 229.839 53.6023 232.281C54.1275 234.722 55.1733 237.021 56.6682 239.02C58.1631 241.02 60.0718 242.672 62.2636 243.864C64.4554 245.057 66.8787 245.761 69.3675 245.929L97.1106 247.792C98.1251 247.861 99.1285 247.546 99.9224 246.91C100.716 246.274 101.243 245.363 101.398 244.357C101.41 244.301 101.414 244.245 101.422 244.19L102.796 231.888L102.808 231.776C102.927 230.734 102.638 229.688 102.003 228.854C101.368 228.021 100.436 227.465 99.4016 227.304Z" fill="#CCCCCC"/>
<path d="M222.31 208.237L220.647 209.145L200.163 220.335L198.5 221.243C197.694 221.685 197.095 222.429 196.836 223.312C196.576 224.196 196.677 225.146 197.117 225.955L212.371 253.944C212.812 254.752 213.556 255.351 214.438 255.611C215.32 255.871 216.27 255.769 217.077 255.329L217.082 255.327L240.883 242.326L240.887 242.323C241.694 241.881 242.292 241.137 242.552 240.254C242.811 239.371 242.71 238.42 242.27 237.612L227.016 209.622C226.575 208.814 225.832 208.215 224.949 207.955C224.067 207.696 223.118 207.797 222.31 208.237Z" fill="#E6E6E6"/>
<path d="M222.788 209.115L220.819 210.19L200.948 221.045L198.979 222.121C198.404 222.435 197.978 222.965 197.793 223.594C197.608 224.223 197.681 224.9 197.994 225.476L213.248 253.465C213.562 254.04 214.091 254.467 214.72 254.652C215.348 254.837 216.024 254.765 216.599 254.452L216.603 254.449L240.404 241.448L240.409 241.446C240.983 241.131 241.41 240.601 241.594 239.972C241.779 239.343 241.707 238.666 241.394 238.09L226.14 210.101C225.825 209.526 225.296 209.099 224.668 208.914C224.04 208.729 223.364 208.801 222.788 209.115Z" fill="white"/>
<path d="M223.347 217.017C223.273 216.882 223.149 216.783 223.002 216.74C222.855 216.696 222.697 216.713 222.562 216.785L221.769 217.22L213.685 221.636C213.551 221.71 213.452 221.834 213.41 221.981C213.367 222.128 213.384 222.286 213.457 222.42C213.53 222.555 213.653 222.654 213.8 222.698C213.946 222.742 214.104 222.726 214.239 222.653L223.116 217.803C223.25 217.729 223.35 217.604 223.393 217.457C223.436 217.31 223.42 217.152 223.347 217.017Z" fill="#E6E6E6"/>
<path d="M226.371 217.587C226.335 217.521 226.286 217.462 226.227 217.414C226.169 217.367 226.101 217.332 226.028 217.31C225.956 217.289 225.88 217.283 225.804 217.291C225.729 217.3 225.656 217.323 225.59 217.36L214.621 223.351C214.555 223.388 214.496 223.437 214.449 223.496C214.401 223.555 214.366 223.623 214.345 223.696C214.323 223.768 214.317 223.845 214.325 223.92C214.333 223.996 214.356 224.069 214.392 224.135C214.429 224.202 214.478 224.26 214.537 224.308C214.596 224.355 214.664 224.391 214.736 224.412C214.809 224.433 214.885 224.44 214.96 224.432C215.036 224.424 215.109 224.401 215.175 224.364L215.685 224.085L218.877 222.342H218.881L226.14 218.373C226.207 218.337 226.267 218.288 226.315 218.229C226.363 218.17 226.399 218.102 226.42 218.029C226.442 217.956 226.449 217.879 226.44 217.803C226.432 217.727 226.408 217.654 226.371 217.587Z" fill="#E6E6E6"/>
<path d="M214.45 227.137L210.968 220.742C210.932 220.678 210.871 220.631 210.801 220.611C210.73 220.591 210.654 220.599 210.589 220.635L208.9 221.556L208.023 222.035L203.318 224.604L202.405 225.102C202.341 225.139 202.294 225.199 202.274 225.27C202.254 225.341 202.262 225.417 202.298 225.481L202.521 225.892L205.78 231.876C205.816 231.939 205.875 231.987 205.945 232.007C206.015 232.027 206.091 232.019 206.155 231.983L211.773 228.916L212.649 228.437L214.338 227.516C214.371 227.498 214.399 227.475 214.423 227.446C214.446 227.418 214.463 227.385 214.473 227.35C214.484 227.314 214.487 227.277 214.483 227.241C214.479 227.204 214.468 227.169 214.45 227.137Z" fill="#E6E6E6"/>
<path d="M227.75 225.13C227.677 224.996 227.554 224.896 227.407 224.853C227.261 224.81 227.103 224.826 226.969 224.899L214.928 231.477C214.822 231.535 214.737 231.625 214.684 231.735C214.632 231.844 214.616 231.968 214.637 232.087C214.646 232.149 214.666 232.208 214.697 232.263C214.728 232.318 214.767 232.367 214.813 232.41L214.817 232.414C214.906 232.494 215.018 232.545 215.137 232.559C215.256 232.574 215.376 232.551 215.482 232.494L227.523 225.916C227.589 225.88 227.648 225.83 227.696 225.771C227.743 225.712 227.778 225.643 227.799 225.57C227.821 225.497 227.827 225.421 227.819 225.345C227.81 225.27 227.787 225.197 227.75 225.13Z" fill="#E6E6E6"/>
<path d="M230.778 225.701C230.741 225.634 230.692 225.576 230.633 225.528C230.574 225.481 230.506 225.445 230.433 225.424C230.36 225.403 230.283 225.397 230.208 225.405C230.133 225.413 230.06 225.437 229.993 225.473L215.861 233.192C215.754 233.248 215.669 233.337 215.616 233.445C215.564 233.554 215.548 233.676 215.57 233.794V233.798C215.578 233.86 215.599 233.92 215.63 233.974C215.66 234.031 215.701 234.082 215.749 234.125C215.837 234.207 215.949 234.259 216.069 234.274C216.188 234.288 216.309 234.264 216.414 234.205L230.547 226.487C230.681 226.413 230.781 226.289 230.824 226.141C230.868 225.994 230.851 225.836 230.778 225.701Z" fill="#E6E6E6"/>
<path d="M210.895 237.879C212.249 237.879 213.346 236.781 213.346 235.426C213.346 234.071 212.249 232.973 210.895 232.973C209.542 232.973 208.445 234.071 208.445 235.426C208.445 236.781 209.542 237.879 210.895 237.879Z" fill="#E6E6E6"/>
<path d="M229.482 197.467L227.819 198.375L207.335 209.565L205.672 210.473C204.866 210.915 204.267 211.659 204.007 212.542C203.748 213.425 203.849 214.376 204.289 215.184L219.543 243.174C219.984 243.982 220.728 244.581 221.61 244.841C222.492 245.1 223.441 244.999 224.249 244.559L224.253 244.557L248.054 231.555L248.059 231.553C248.866 231.111 249.464 230.367 249.724 229.484C249.983 228.6 249.882 227.65 249.442 226.841L234.188 198.852C233.747 198.044 233.003 197.445 232.121 197.185C231.239 196.925 230.29 197.027 229.482 197.467Z" fill="#CCCCCC"/>
<path d="M229.96 198.344L227.991 199.42L208.12 210.275L206.151 211.35C205.576 211.665 205.15 212.195 204.965 212.824C204.78 213.453 204.852 214.13 205.165 214.706L220.42 242.695C220.734 243.27 221.263 243.697 221.892 243.882C222.52 244.067 223.196 243.995 223.771 243.681L223.775 243.679L247.576 230.678L247.581 230.675C248.155 230.361 248.581 229.831 248.766 229.202C248.951 228.573 248.879 227.896 248.566 227.32L233.312 199.331C232.997 198.756 232.468 198.329 231.84 198.144C231.211 197.959 230.536 198.031 229.96 198.344Z" fill="white"/>
<path d="M230.519 206.247C230.445 206.112 230.321 206.013 230.174 205.969C230.027 205.926 229.869 205.943 229.734 206.015L225.646 208.249L224.507 208.871L220.857 210.866C220.723 210.94 220.624 211.064 220.581 211.211C220.539 211.358 220.556 211.516 220.629 211.65C220.702 211.784 220.825 211.884 220.972 211.928C221.118 211.972 221.276 211.956 221.411 211.883L225.714 209.534L226.614 209.039L230.288 207.033C230.422 206.958 230.522 206.834 230.565 206.687C230.608 206.54 230.592 206.382 230.519 206.247Z" fill="#CCCCCC"/>
<path d="M233.543 206.817C233.507 206.751 233.458 206.692 233.399 206.644C233.34 206.597 233.273 206.561 233.2 206.54C233.127 206.519 233.051 206.513 232.976 206.521C232.901 206.53 232.828 206.553 232.762 206.59L227.061 209.705L226.184 210.184L221.793 212.581C221.727 212.618 221.668 212.667 221.621 212.726C221.573 212.785 221.538 212.853 221.516 212.926C221.495 212.998 221.488 213.075 221.497 213.15C221.505 213.225 221.528 213.298 221.564 213.365C221.6 213.431 221.65 213.49 221.709 213.538C221.768 213.585 221.835 213.621 221.908 213.642C221.981 213.663 222.057 213.67 222.132 213.662C222.208 213.654 222.281 213.631 222.347 213.594L226.738 211.197L227.614 210.718L233.312 207.603C233.379 207.567 233.439 207.518 233.487 207.459C233.535 207.4 233.571 207.332 233.592 207.259C233.614 207.185 233.62 207.109 233.612 207.033C233.604 206.957 233.58 206.884 233.543 206.817Z" fill="#CCCCCC"/>
<path d="M221.622 216.367L218.845 211.269L218.367 210.391L218.139 209.972C218.103 209.908 218.043 209.861 217.972 209.841C217.902 209.82 217.826 209.829 217.761 209.865L212.123 212.944L209.577 214.332C209.513 214.369 209.466 214.429 209.446 214.5C209.425 214.571 209.434 214.647 209.47 214.711L209.697 215.126L209.944 215.585L210.175 216.004V216.008L212.952 221.106C212.987 221.169 213.047 221.217 213.117 221.237C213.187 221.257 213.262 221.248 213.326 221.213L221.51 216.746C221.543 216.728 221.571 216.705 221.594 216.676C221.617 216.648 221.635 216.615 221.645 216.579C221.655 216.544 221.659 216.507 221.655 216.471C221.651 216.434 221.64 216.399 221.622 216.367Z" fill="#6C63FF"/>
<path d="M234.922 214.36C234.849 214.226 234.725 214.126 234.579 214.083C234.433 214.04 234.275 214.056 234.141 214.129L230.543 216.095L229.666 216.574L226.192 218.469L222.1 220.707C222.033 220.743 221.974 220.792 221.927 220.851C221.879 220.911 221.843 220.979 221.822 221.052C221.8 221.125 221.794 221.201 221.802 221.277C221.81 221.352 221.833 221.426 221.869 221.492C221.905 221.559 221.954 221.618 222.014 221.666C222.073 221.714 222.141 221.749 222.214 221.771C222.286 221.792 222.363 221.799 222.438 221.791C222.514 221.783 222.587 221.76 222.654 221.724L230.22 217.591L231.097 217.113L234.695 215.146C234.761 215.109 234.82 215.06 234.867 215.001C234.915 214.941 234.95 214.873 234.971 214.8C234.992 214.727 234.999 214.651 234.99 214.575C234.982 214.5 234.959 214.427 234.922 214.36Z" fill="#CCCCCC"/>
<path d="M237.95 214.931C237.913 214.864 237.864 214.805 237.805 214.758C237.745 214.71 237.677 214.675 237.604 214.654C237.532 214.633 237.455 214.626 237.38 214.635C237.304 214.643 237.231 214.666 237.165 214.703L231.479 217.811L230.603 218.289L223.033 222.422C222.966 222.458 222.907 222.507 222.859 222.566C222.811 222.625 222.775 222.693 222.754 222.766C222.732 222.839 222.725 222.916 222.734 222.991C222.742 223.067 222.765 223.14 222.801 223.207C222.837 223.274 222.887 223.332 222.946 223.38C223.005 223.428 223.073 223.463 223.146 223.484C223.219 223.505 223.296 223.512 223.371 223.504C223.447 223.495 223.52 223.472 223.586 223.435L231.153 219.302L232.029 218.824L237.719 215.716C237.853 215.642 237.953 215.518 237.996 215.371C238.04 215.224 238.023 215.066 237.95 214.931Z" fill="#CCCCCC"/>
<path d="M218.067 227.109C219.421 227.109 220.518 226.011 220.518 224.656C220.518 223.301 219.421 222.203 218.067 222.203C216.714 222.203 215.617 223.301 215.617 224.656C215.617 226.011 216.714 227.109 218.067 227.109Z" fill="#CCCCCC"/>
<path d="M219.713 238.449C220.126 238.489 220.534 238.563 220.936 238.668L248.726 213.986L246.929 205.131L259.923 200.669L264.626 216.035C265.006 217.276 264.973 218.608 264.533 219.829C264.093 221.05 263.269 222.096 262.185 222.808L226.854 246.031C226.906 247.629 226.471 249.205 225.607 250.549C224.742 251.893 223.49 252.942 222.016 253.557C220.541 254.171 218.915 254.321 217.353 253.987C215.792 253.654 214.369 252.852 213.273 251.689C212.178 250.525 211.462 249.056 211.221 247.476C210.98 245.895 211.226 244.279 211.925 242.842C212.624 241.404 213.744 240.214 215.135 239.429C216.526 238.645 218.123 238.303 219.713 238.449Z" fill="#FFB8B8"/>
<path d="M267.857 202.88L259.983 187.826C259.173 185.536 257.506 183.651 255.334 182.569C253.161 181.487 250.654 181.292 248.341 182.026C248.253 182.05 248.17 182.078 248.082 182.11C245.738 182.93 243.815 184.648 242.735 186.886C241.655 189.124 241.506 191.7 242.321 194.048L245.48 210.686C245.571 211.163 245.763 211.614 246.043 212.009C246.324 212.404 246.686 212.734 247.106 212.976C247.565 213.245 248.081 213.398 248.612 213.423C249.049 213.45 249.486 213.389 249.899 213.243L251.588 212.653L262.434 208.871L265.98 207.635C266.437 207.475 266.855 207.218 267.204 206.882C267.554 206.546 267.826 206.138 268.005 205.687C268.183 205.236 268.262 204.752 268.236 204.267C268.21 203.783 268.081 203.31 267.857 202.88Z" fill="#6C63FF"/>
<path d="M297.577 260.947H37.3984C37.2928 260.947 37.1914 260.905 37.1167 260.83C37.042 260.755 37 260.654 37 260.548C37 260.442 37.042 260.341 37.1167 260.266C37.1914 260.191 37.2928 260.149 37.3984 260.149H297.577C297.683 260.149 297.785 260.191 297.859 260.266C297.934 260.341 297.976 260.442 297.976 260.548C297.976 260.654 297.934 260.755 297.859 260.83C297.785 260.905 297.683 260.947 297.577 260.947Z" fill="#3F3D56"/>
<path d="M82.2209 253.568V253.767C82.2223 255.119 82.6157 256.442 83.3534 257.575C84.0911 258.708 85.1413 259.602 86.3767 260.149C87.2629 260.546 88.2229 260.75 89.1936 260.748H153.541V253.568H82.2209Z" fill="#3F3D56"/>
<path d="M198.469 206.247C197.448 204.136 195.875 202.342 193.919 201.053C193.032 200.465 192.075 199.991 191.07 199.641C189.701 199.162 188.261 198.918 186.811 198.919H125.053C121.62 198.923 118.328 200.29 115.901 202.72C113.473 205.151 112.108 208.446 112.104 211.883V247.784C112.103 248.287 112.132 248.791 112.192 249.291C112.279 250.04 112.431 250.779 112.646 251.501C112.859 252.213 113.133 252.904 113.466 253.567C114.539 255.725 116.192 257.54 118.239 258.809C120.286 260.077 122.646 260.749 125.053 260.748H186.811C188.511 260.748 190.195 260.413 191.767 259.762C193.338 259.111 194.766 258.156 195.969 256.952C197.171 255.748 198.125 254.319 198.775 252.745C199.426 251.172 199.76 249.486 199.76 247.784V211.883C199.763 209.93 199.321 208.003 198.469 206.247Z" fill="#3F3D56"/>
<path d="M159.318 233.024C161.079 233.024 162.506 231.596 162.506 229.833C162.506 228.071 161.079 226.642 159.318 226.642C157.558 226.642 156.131 228.071 156.131 229.833C156.131 231.596 157.558 233.024 159.318 233.024Z" fill="white"/>
</g>
<path d="M38.2483 267.262L32.1087 274.493L32.135 274.541C32.7197 274.147 33.4358 273.719 34.283 273.254L39.8581 270.199L40.3739 271.14L31.6096 275.943L30.7686 274.409L36.4771 267.671L36.4508 267.623L27.687 268.786L26.8525 267.263L35.6168 262.46L36.1753 263.479L30.5282 266.574C29.8808 266.929 29.1621 267.286 28.3721 267.646L28.3984 267.694L37.7982 266.44L38.2483 267.262Z" fill="black"/>
<path d="M24.9408 257.501L29.3867 255.537C29.9453 255.29 30.306 254.979 30.4687 254.603C30.6315 254.227 30.5932 253.768 30.3538 253.226C30.037 252.509 29.61 252.073 29.0727 251.917C28.5335 251.756 27.8199 251.872 26.932 252.264L23.3303 253.856L22.8718 252.818L29.725 249.79L30.1034 250.647L29.2505 251.203L29.2754 251.259C29.707 251.322 30.0962 251.504 30.443 251.804C30.788 252.1 31.0673 252.49 31.281 252.974C31.6493 253.807 31.7275 254.52 31.5157 255.112C31.302 255.7 30.7595 256.186 29.8883 256.571L25.4049 258.552L24.9408 257.501Z" fill="black"/>
<path d="M25.9912 239.776C26.3597 240.797 26.3325 241.7 25.9096 242.488C25.4808 243.273 24.692 243.873 23.5434 244.288C22.3647 244.713 21.3516 244.76 20.5043 244.426C19.6555 244.088 19.0413 243.394 18.662 242.344C18.5397 242.006 18.4538 241.654 18.4043 241.289C18.3549 240.924 18.3446 240.627 18.3735 240.399L19.3985 240.399C19.3893 240.669 19.4051 240.954 19.4457 241.254C19.4821 241.556 19.539 241.814 19.6164 242.029C20.1336 243.46 21.3051 243.846 23.131 243.186C23.9968 242.874 24.5985 242.46 24.9359 241.946C25.2719 241.427 25.316 240.825 25.0682 240.139C24.8561 239.552 24.5121 238.995 24.0363 238.469L24.9814 238.128C25.396 238.511 25.7326 239.061 25.9912 239.776Z" fill="black"/>
<path d="M21.6449 226.461L16.9834 227.788C16.3961 227.955 15.9958 228.213 15.7826 228.563C15.5694 228.913 15.544 229.373 15.7062 229.942C15.922 230.701 16.2859 231.197 16.7977 231.43C17.3083 231.659 18.0326 231.64 18.9706 231.373L22.7379 230.3L23.0486 231.392L12.8183 234.304L12.5076 233.213L15.6043 232.331C15.9769 232.225 16.2909 232.155 16.5463 232.12L16.5276 232.054C16.1202 231.938 15.7617 231.711 15.4522 231.372C15.137 231.031 14.9071 230.606 14.7623 230.097C14.5115 229.216 14.5341 228.497 14.8302 227.939C15.1205 227.378 15.7216 226.967 16.6333 226.708L21.3342 225.369L21.6449 226.461Z" fill="black"/>
<path d="M14.5348 212.399C15.7312 212.153 16.7283 212.262 17.5262 212.726C18.3197 213.191 18.8255 213.955 19.0439 215.018C19.1787 215.674 19.1444 216.288 18.941 216.86C18.7375 217.432 18.3763 217.916 17.8573 218.311C17.3383 218.706 16.6927 218.983 15.9204 219.142C14.7241 219.388 13.7318 219.28 12.9438 218.818C12.1513 218.358 11.6459 217.596 11.4275 216.534C11.2166 215.507 11.3906 214.622 11.9498 213.879C12.508 213.132 13.3697 212.638 14.5348 212.399ZM15.6837 217.99C16.6212 217.798 17.2969 217.463 17.7109 216.987C18.1249 216.512 18.2571 215.91 18.1076 215.182C17.9581 214.455 17.6015 213.953 17.0379 213.678C16.4689 213.4 15.7134 213.357 14.7715 213.551C13.8385 213.742 13.17 214.078 12.7658 214.556C12.3563 215.031 12.2272 215.637 12.3786 216.373C12.5281 217.101 12.8797 217.601 13.4335 217.873C13.9873 218.146 14.7374 218.185 15.6837 217.99Z" fill="black"/>
<path d="M14.3324 199.809C15.0235 199.716 15.591 199.902 16.035 200.366C16.479 200.831 16.7634 201.529 16.8882 202.459C17.0202 203.444 16.9674 204.233 16.7296 204.825L15.6863 204.965C15.8191 204.584 15.9102 204.184 15.9595 203.763C16.0083 203.338 16.0072 202.936 15.9563 202.556C15.8776 201.969 15.7244 201.53 15.4968 201.239C15.2647 200.948 14.9566 200.828 14.5727 200.88C14.2836 200.919 14.0544 201.078 13.8851 201.358C13.7106 201.635 13.5322 202.155 13.3497 202.92C13.1849 203.646 13.0273 204.168 12.877 204.487C12.7216 204.802 12.5316 205.048 12.3071 205.225C12.0819 205.398 11.8 205.507 11.4612 205.553C10.856 205.634 10.3464 205.452 9.93258 205.006C9.51423 204.561 9.2475 203.909 9.13239 203.051C9.02516 202.252 9.08295 201.448 9.30578 200.641L10.2741 200.918C10.0669 201.705 10.0039 202.401 10.0851 203.006C10.1565 203.539 10.294 203.93 10.4975 204.178C10.701 204.427 10.9495 204.532 11.2431 204.492C11.4418 204.466 11.6046 204.393 11.7313 204.275C11.8573 204.152 11.9685 203.97 12.0647 203.727C12.1608 203.484 12.2856 203.026 12.439 202.352C12.6415 201.429 12.8848 200.791 13.1688 200.44C13.4522 200.085 13.8401 199.875 14.3324 199.809Z" fill="black"/>
<path d="M15.2038 180.131C15.2116 180.619 15.1299 181.067 14.9587 181.475C14.7828 181.879 14.5103 182.221 14.141 182.5L14.1423 182.582C14.5789 182.521 14.9931 182.487 15.385 182.48L18.4676 182.431L18.4857 183.566L7.63165 183.739L7.61688 182.817L8.63962 182.643L8.63875 182.588C8.22398 182.303 7.92236 181.969 7.7339 181.584C7.54543 181.2 7.44719 180.757 7.43917 180.256C7.42327 179.262 7.7505 178.491 8.42084 177.943C9.09111 177.39 10.0391 177.103 11.2649 177.084C12.4952 177.064 13.4565 177.324 14.1488 177.865C14.8365 178.401 15.1882 179.156 15.2038 180.131ZM8.40553 180.404C8.41778 181.17 8.63853 181.72 9.06777 182.055C9.49701 182.39 10.1742 182.555 11.0994 182.549L11.3523 182.545C12.4049 182.528 13.1562 182.341 13.6063 181.982C14.0518 181.624 14.2683 181.058 14.2559 180.283C14.2456 179.636 13.9755 179.135 13.4456 178.779C12.9157 178.418 12.1905 178.245 11.27 178.26C10.3359 178.275 9.62345 178.471 9.13267 178.848C8.63727 179.22 8.39489 179.739 8.40553 180.404Z" fill="black"/>
<path d="M7.74777 165.935C7.76462 165.603 7.80704 165.306 7.87505 165.045L8.91847 165.255C8.8345 165.561 8.78652 165.833 8.77452 166.069C8.74382 166.675 8.96329 167.206 9.43292 167.663C9.90278 168.116 10.5041 168.361 11.2369 168.398L15.2513 168.602L15.1938 169.735L7.71121 169.356L7.75864 168.42L9.15113 168.361L9.1539 168.306C8.68098 168.004 8.32245 167.65 8.07831 167.246C7.83418 166.841 7.724 166.404 7.74777 165.935Z" fill="black"/>
<path d="M12.9678 152.012C14.1807 152.155 15.0929 152.573 15.7043 153.264C16.3112 153.955 16.5511 154.839 16.4241 155.917C16.3457 156.582 16.1199 157.154 15.7468 157.633C15.3737 158.112 14.8787 158.458 14.2618 158.67C13.6449 158.881 12.9449 158.941 12.1619 158.849C10.949 158.706 10.041 158.291 9.43816 157.605C8.83076 156.919 8.59054 156.037 8.71751 154.96C8.84022 153.919 9.28381 153.134 10.0483 152.604C10.8133 152.071 11.7865 151.873 12.9678 152.012ZM12.2996 157.681C13.25 157.793 13.9966 157.688 14.5392 157.367C15.0819 157.046 15.3967 156.516 15.4837 155.778C15.5706 155.04 15.3899 154.452 14.9413 154.014C14.4888 153.571 13.7851 153.293 12.8301 153.18C11.8842 153.069 11.1442 153.176 10.61 153.504C10.0719 153.826 9.75878 154.36 9.67075 155.107C9.58379 155.844 9.76031 156.43 10.2003 156.862C10.6403 157.295 11.3401 157.568 12.2996 157.681Z" fill="black"/>
<path d="M10.2581 144.887L10.4871 143.692L14.9919 142.885C16.0175 142.715 16.7511 142.628 17.1926 142.624L17.2029 142.571C16.9858 142.469 16.6195 142.273 16.1042 141.984C15.5852 141.69 14.001 140.755 11.3516 139.18L11.5806 137.985L19.3535 142.753C20.1215 143.225 20.6375 143.705 20.9015 144.191C21.1708 144.674 21.2472 145.22 21.1305 145.829C21.0653 146.169 20.963 146.498 20.8234 146.814L19.9305 146.643C20.0314 146.407 20.111 146.137 20.1693 145.833C20.316 145.067 19.9909 144.439 19.1942 143.948L18.2253 143.337L10.2581 144.887Z" fill="black"/>
<path d="M21.4539 129.503C21.1706 130.574 20.6208 131.334 19.8043 131.782C18.9891 132.227 18.0021 132.295 16.8434 131.989C15.6759 131.68 14.8243 131.148 14.2886 130.394C13.754 129.635 13.6149 128.77 13.8714 127.801C14.1115 126.894 14.6011 126.255 15.3402 125.885C16.0748 125.513 16.9312 125.457 17.9093 125.716L18.6032 125.899L17.283 130.889C18.1391 131.092 18.8411 131.049 19.3889 130.76C19.9379 130.467 20.3103 129.95 20.5061 129.21C20.7124 128.43 20.7534 127.616 20.6291 126.768L21.6071 127.027C21.672 127.459 21.6936 127.858 21.672 128.225C21.656 128.588 21.5833 129.014 21.4539 129.503ZM14.7865 128.057C14.6326 128.639 14.6991 129.154 14.9859 129.602C15.2738 130.046 15.7445 130.387 16.3978 130.626L17.3998 126.84C16.7081 126.657 16.1386 126.671 15.6913 126.883C15.2396 127.093 14.938 127.485 14.7865 128.057Z" fill="black"/>
<path d="M25.145 117.347C24.7983 118.375 24.2143 119.065 23.393 119.418C22.5689 119.766 21.5782 119.744 20.4209 119.354C19.2334 118.953 18.4119 118.359 17.9564 117.57C17.5024 116.777 17.4538 115.852 17.8107 114.794C17.9258 114.453 18.0776 114.124 18.266 113.808C18.4545 113.491 18.6312 113.253 18.7961 113.092L19.598 113.73C19.4228 113.936 19.2577 114.169 19.1026 114.429C18.9431 114.688 18.827 114.925 18.7541 115.141C18.2676 116.583 18.9442 117.615 20.7837 118.235C21.656 118.529 22.3843 118.58 22.9687 118.388C23.5545 118.191 23.9639 117.747 24.197 117.056C24.3966 116.465 24.4738 115.815 24.4288 115.107L25.381 115.428C25.4669 115.986 25.3882 116.626 25.145 117.347Z" fill="black"/>
<path d="M28.2566 106.403C28.3318 106.217 28.3916 106.032 28.4363 105.849C28.4767 105.664 28.5026 105.514 28.514 105.401L29.319 105.726C29.3278 105.863 29.3039 106.049 29.2472 106.287C29.1964 106.522 29.1352 106.728 29.0635 106.906C28.5206 108.25 27.5413 108.635 26.1258 108.063L21.9934 106.394L21.5913 107.389L21.0843 107.184L21.049 106.012L19.7452 104.969L19.991 104.361L21.6009 105.011L22.4153 102.996L23.2329 103.326L22.4185 105.342L26.5066 106.993C26.9249 107.162 27.2862 107.193 27.5903 107.085C27.8945 106.977 28.1166 106.749 28.2566 106.403Z" fill="black"/>
<path d="M31.3725 92.3859C32.4733 92.915 33.2006 93.6058 33.5543 94.4584C33.9039 95.309 33.8438 96.2231 33.374 97.2007C33.0838 97.8046 32.6845 98.2725 32.176 98.6045C31.6676 98.9366 31.0872 99.1026 30.435 99.1026C29.7827 99.1027 29.1013 98.9319 28.3906 98.5904C27.2898 98.0613 26.5657 97.3746 26.2182 96.53C25.8665 95.6835 25.9256 94.7714 26.3955 93.7938C26.8495 92.8491 27.524 92.2505 28.419 91.998C29.3159 91.7414 30.3004 91.8707 31.3725 92.3859ZM28.9 97.5306C29.7625 97.9452 30.5027 98.0885 31.1203 97.9606C31.738 97.8327 32.2077 97.434 32.5294 96.7645C32.8512 96.095 32.8711 95.4801 32.5892 94.9199C32.3052 94.3536 31.7298 93.8622 30.8631 93.4457C30.0047 93.0331 29.2697 92.8948 28.6583 93.0307C28.0448 93.1606 27.5751 93.5644 27.2494 94.2421C26.9276 94.9117 26.9046 95.5225 27.1803 96.0747C27.4559 96.6268 28.0291 97.1121 28.9 97.5306Z" fill="black"/>
<path d="M38.8377 82.2453C39.4437 82.5902 39.7826 83.0819 39.8544 83.7205C39.9263 84.3591 39.73 85.0864 39.2657 85.9024C38.7744 86.7659 38.2546 87.3615 37.7063 87.6892L36.7913 87.1685C37.1278 86.9458 37.443 86.6821 37.737 86.3774C38.0332 86.0688 38.276 85.7482 38.4653 85.4154C38.7583 84.9005 38.9025 84.4582 38.8978 84.0885C38.8893 83.7166 38.7166 83.4349 38.3799 83.2433C38.1264 83.099 37.8475 83.0871 37.543 83.2075C37.2368 83.3217 36.7795 83.6277 36.1711 84.1257C35.6005 84.6033 35.1587 84.9234 34.8459 85.0862C34.5313 85.2428 34.231 85.3236 33.945 85.3287C33.6612 85.3298 33.3708 85.2458 33.0737 85.0767C32.543 84.7747 32.2479 84.3211 32.1886 83.7158C32.1253 83.1082 32.3078 82.4282 32.7361 81.6756C33.135 80.9745 33.6675 80.3704 34.3336 79.8633L34.9362 80.6702C34.295 81.1705 33.8234 81.6861 33.5213 82.2168C33.2554 82.6842 33.1281 83.0784 33.1394 83.3995C33.1507 83.7205 33.2851 83.9543 33.5426 84.1008C33.7168 84.2 33.8902 84.2409 34.0625 84.2237C34.2372 84.2024 34.4363 84.1243 34.6599 83.9894C34.8835 83.8545 35.2603 83.5655 35.7903 83.1225C36.511 82.5101 37.0906 82.1504 37.529 82.0434C37.9697 81.9323 38.406 81.9997 38.8377 82.2453Z" fill="black"/>
<path d="M306.484 85.7673L311.878 78.2531L311.845 78.2095C311.294 78.6414 310.613 79.1197 309.802 79.6442L304.463 83.096L303.816 82.2401L312.208 76.8137L313.264 78.2094L308.251 85.2097L308.284 85.2533L317.133 83.3231L318.18 84.7078L309.788 90.1342L309.087 89.2074L314.494 85.711C315.114 85.3102 315.807 84.9001 316.573 84.4809L316.54 84.4373L307.049 86.5142L306.484 85.7673Z" fill="black"/>
<path d="M315.191 98.5426C314.607 97.6017 314.444 96.7003 314.701 95.8382C314.96 94.98 315.619 94.27 316.678 93.7082C317.744 93.1422 318.748 92.9442 319.688 93.1143C320.631 93.2882 321.367 93.8011 321.896 94.6529C322.391 95.4505 322.509 96.2268 322.25 96.982C321.995 97.7349 321.421 98.3486 320.527 98.8228L319.893 99.1592L317.171 94.7744C316.406 95.2061 315.933 95.7068 315.751 96.2766C315.572 96.8503 315.685 97.4624 316.089 98.1128C316.514 98.7981 317.084 99.3966 317.797 99.9084L316.904 100.383C316.539 100.123 316.23 99.8574 315.976 99.5858C315.72 99.3201 315.458 98.9723 315.191 98.5426ZM321.05 95.0867C320.732 94.5756 320.306 94.259 319.769 94.1368C319.236 94.0185 318.646 94.0946 318.001 94.3651L320.067 97.6929C320.699 97.3575 321.098 96.9657 321.263 96.5173C321.433 96.0669 321.362 95.59 321.05 95.0867Z" fill="black"/>
<path d="M316.358 106.817C316.154 106.435 316.041 106.101 316.019 105.817L316.858 105.434C316.923 105.75 317.028 106.042 317.171 106.311C317.338 106.625 317.55 106.814 317.805 106.877C318.059 106.947 318.366 106.899 318.727 106.735L326.665 103.12L327.198 104.121L319.335 107.703C317.991 108.315 316.999 108.019 316.358 106.817ZM328.467 102.194C328.704 102.086 328.906 102.064 329.074 102.128C329.246 102.189 329.377 102.305 329.467 102.473C329.553 102.634 329.571 102.799 329.521 102.966C329.471 103.134 329.33 103.271 329.098 103.376C328.865 103.482 328.66 103.503 328.482 103.439C328.308 103.374 328.178 103.261 328.092 103.1C328.002 102.931 327.983 102.764 328.035 102.601C328.091 102.435 328.235 102.3 328.467 102.194Z" fill="black"/>
<path d="M329.818 118.201C328.676 118.636 327.659 118.696 326.765 118.379C325.876 118.061 325.21 117.407 324.768 116.417C324.494 115.805 324.399 115.206 324.481 114.62C324.563 114.033 324.821 113.506 325.255 113.038C325.689 112.571 326.274 112.196 327.011 111.915C328.152 111.48 329.164 111.42 330.047 111.735C330.935 112.049 331.6 112.701 332.042 113.692C332.47 114.649 332.483 115.532 332.083 116.343C331.684 117.157 330.929 117.777 329.818 118.201ZM327.49 112.989C326.596 113.33 325.993 113.765 325.681 114.293C325.368 114.821 325.364 115.425 325.667 116.103C325.969 116.781 326.431 117.207 327.051 117.379C327.677 117.554 328.44 117.47 329.338 117.127C330.228 116.788 330.824 116.353 331.126 115.824C331.434 115.297 331.434 114.691 331.128 114.004C330.825 113.326 330.369 112.901 329.759 112.729C329.149 112.558 328.393 112.644 327.49 112.989Z" fill="black"/>
<path d="M337.165 126.567C337.277 126.88 337.351 127.169 337.388 127.434L336.328 127.594C336.289 127.282 336.23 127.015 336.15 126.791C335.946 126.221 335.535 125.804 334.919 125.54C334.304 125.281 333.645 125.258 332.944 125.473L329.1 126.649L328.718 125.58L335.882 123.389L336.198 124.27L334.914 124.799L334.933 124.85C335.493 124.969 335.965 125.175 336.35 125.466C336.735 125.758 337.006 126.125 337.165 126.567Z" fill="black"/>
<path d="M332.673 138.263C332.378 137.196 332.473 136.275 332.958 135.501C333.444 134.73 334.27 134.207 335.437 133.932C336.612 133.654 337.624 133.718 338.474 134.126C339.325 134.537 339.885 135.226 340.152 136.193C340.402 137.097 340.299 137.885 339.842 138.554C339.389 139.223 338.67 139.674 337.685 139.907L336.987 140.072L335.61 135.098C334.761 135.322 334.17 135.689 333.838 136.198C333.508 136.711 333.445 137.337 333.649 138.075C333.864 138.852 334.241 139.582 334.779 140.264L333.795 140.497C333.519 140.15 333.298 139.812 333.131 139.482C332.961 139.157 332.808 138.751 332.673 138.263ZM339.224 136.398C339.063 135.818 338.744 135.4 338.267 135.143C337.791 134.891 337.207 134.814 336.516 134.912L337.56 138.687C338.257 138.522 338.746 138.243 339.029 137.848C339.317 137.452 339.382 136.969 339.224 136.398Z" fill="black"/>
<path d="M337.848 151.177C337.161 151.292 336.581 151.125 336.108 150.677C335.635 150.23 335.309 149.545 335.129 148.624C334.939 147.649 334.946 146.862 335.149 146.265L336.188 146.092C336.077 146.475 336.009 146.877 335.984 147.296C335.96 147.721 335.985 148.121 336.058 148.496C336.172 149.078 336.351 149.51 336.597 149.792C336.847 150.074 337.163 150.183 337.545 150.119C337.832 150.071 338.053 149.905 338.206 149.621C338.365 149.34 338.513 148.817 338.652 148.05C338.774 147.323 338.902 146.798 339.034 146.476C339.171 146.158 339.347 145.907 339.562 145.723C339.778 145.544 340.054 145.426 340.391 145.37C340.994 145.269 341.516 145.434 341.957 145.864C342.403 146.293 342.708 146.932 342.874 147.782C343.029 148.574 343.018 149.375 342.842 150.185L341.854 149.941C342.016 149.152 342.038 148.457 341.921 147.858C341.818 147.33 341.657 146.946 341.439 146.705C341.22 146.465 340.965 146.369 340.672 146.418C340.475 146.451 340.316 146.528 340.196 146.65C340.076 146.776 339.975 146.961 339.893 147.206C339.811 147.45 339.713 147.91 339.598 148.585C339.45 149.51 339.243 150.152 338.979 150.51C338.715 150.873 338.338 151.095 337.848 151.177Z" fill="black"/>
<path d="M344.469 168.808L344.338 166.906L337.739 167.293L337.662 166.161L344.261 165.774L344.169 164.437L344.681 164.407L345.182 165.72L345.598 165.695C347.436 165.587 348.41 166.336 348.52 167.941C348.548 168.337 348.5 168.805 348.377 169.346L347.449 169.106C347.56 168.661 347.605 168.285 347.584 167.975C347.555 167.548 347.39 167.24 347.089 167.053C346.793 166.865 346.331 166.789 345.703 166.826L345.219 166.854L345.349 168.757L344.469 168.808Z" fill="black"/>
<path d="M345.698 178.365C345.699 178.698 345.672 178.996 345.619 179.261L344.565 179.106C344.633 178.796 344.666 178.523 344.665 178.286C344.663 177.68 344.416 177.161 343.922 176.729C343.429 176.302 342.815 176.089 342.081 176.091L338.062 176.102L338.058 174.967L345.55 174.947L345.553 175.884L344.166 176.017L344.166 176.072C344.655 176.349 345.032 176.683 345.297 177.074C345.563 177.465 345.696 177.896 345.698 178.365Z" fill="black"/>
<path d="M337.498 188.174C337.577 187.069 337.976 186.217 338.695 185.617C339.414 185.022 340.372 184.761 341.568 184.835C342.774 184.909 343.71 185.263 344.377 185.897C345.044 186.536 345.342 187.356 345.27 188.356C345.203 189.292 344.84 190.014 344.183 190.522C343.529 191.029 342.698 191.252 341.688 191.19L340.972 191.147L341.341 185.999C340.461 185.968 339.779 186.147 339.294 186.537C338.809 186.932 338.539 187.512 338.484 188.275C338.427 189.08 338.538 189.886 338.818 190.693L337.808 190.631C337.664 190.22 337.568 189.833 337.521 189.469C337.47 189.11 337.462 188.678 337.498 188.174ZM344.323 188.284C344.366 187.684 344.204 187.192 343.839 186.809C343.473 186.431 342.947 186.188 342.26 186.082L341.98 189.989C342.694 190.033 343.251 189.907 343.652 189.612C344.056 189.318 344.28 188.875 344.323 188.284Z" fill="black"/>
<path d="M336.098 199.985C336.266 198.891 336.733 198.07 337.5 197.522C338.265 196.979 339.242 196.786 340.431 196.942C341.628 197.099 342.534 197.517 343.149 198.195C343.763 198.878 343.994 199.714 343.842 200.705C343.7 201.633 343.28 202.327 342.582 202.787C341.889 203.247 341.041 203.412 340.038 203.28L339.326 203.187L340.11 198.085C339.234 197.993 338.539 198.125 338.023 198.48C337.507 198.84 337.191 199.398 337.074 200.155C336.952 200.952 336.998 201.762 337.213 202.585L336.21 202.454C336.099 202.035 336.035 201.643 336.017 201.277C335.994 200.916 336.021 200.485 336.098 199.985ZM342.902 200.568C342.993 199.974 342.872 199.473 342.538 199.066C342.204 198.664 341.698 198.386 341.021 198.233L340.426 202.104C341.135 202.197 341.702 202.111 342.125 201.845C342.553 201.579 342.812 201.154 342.902 200.568Z" fill="black"/>
<path d="M334.334 209.73L334.582 208.623L345.029 210.624L344.781 211.732L334.334 209.73Z" fill="black"/>
<path d="M331.268 221.042L332.366 221.088L332.381 221.035C332.033 220.562 331.83 220.125 331.773 219.725C331.719 219.331 331.771 218.868 331.929 218.334C332.14 217.622 332.492 217.11 332.983 216.798C333.474 216.49 334.061 216.423 334.746 216.597C336.212 216.969 336.637 218.323 336.019 220.661L335.697 221.89L336.148 222.005C336.718 222.149 337.174 222.133 337.516 221.957C337.861 221.786 338.113 221.434 338.271 220.901C338.448 220.303 338.464 219.578 338.317 218.728L339.258 218.608C339.347 219.011 339.385 219.436 339.371 219.883C339.355 220.335 339.285 220.773 339.159 221.197C338.905 222.053 338.525 222.638 338.019 222.951C337.511 223.269 336.833 223.32 335.985 223.105L331.029 221.848L331.268 221.042ZM332.773 218.781C332.572 219.458 332.602 220.037 332.863 220.516C333.123 221 333.591 221.328 334.267 221.5L334.923 221.666L335.2 220.566C335.425 219.693 335.474 219.034 335.345 218.588C335.219 218.147 334.902 217.862 334.394 217.734C333.997 217.633 333.659 217.674 333.381 217.857C333.103 218.045 332.9 218.353 332.773 218.781Z" fill="black"/>
<path d="M327.012 232.78L331.611 234.31C332.19 234.503 332.673 234.518 333.059 234.354C333.445 234.189 333.746 233.831 333.961 233.279C334.245 232.549 334.252 231.947 333.983 231.473C333.713 231 333.115 230.609 332.19 230.301L328.46 229.06L328.872 228.003L335.981 230.368L335.646 231.228L334.606 231.076L334.586 231.127C334.852 231.46 335.004 231.854 335.042 232.308C335.085 232.763 335.013 233.231 334.826 233.711C334.499 234.552 334.045 235.116 333.464 235.402C332.888 235.69 332.146 235.683 331.238 235.381L326.6 233.838L327.012 232.78Z" fill="black"/>
<path d="M322.401 242.575C322.873 241.598 323.547 240.968 324.422 240.685C325.299 240.407 326.302 240.502 327.43 240.968C328.589 241.447 329.353 242.087 329.723 242.89C330.091 243.697 330.032 244.603 329.546 245.608C329.389 245.932 329.197 246.241 328.968 246.536C328.74 246.83 328.533 247.05 328.347 247.195L327.607 246.513C327.809 246.325 328.004 246.11 328.192 245.868C328.384 245.628 328.53 245.405 328.629 245.2C329.291 243.829 328.726 242.773 326.931 242.032C326.08 241.68 325.347 241.577 324.732 241.721C324.114 241.87 323.647 242.272 323.329 242.929C323.058 243.491 322.903 244.119 322.866 244.812L321.937 244.428C321.915 243.878 322.07 243.26 322.401 242.575Z" fill="black"/>
<path d="M316.999 252.492C317.554 251.534 318.296 250.927 319.222 250.671C320.147 250.418 321.146 250.558 322.22 251.091C323.302 251.627 324.013 252.31 324.352 253.138C324.69 253.97 324.607 254.82 324.104 255.687C323.633 256.499 322.982 257.004 322.152 257.202C321.327 257.401 320.461 257.277 319.554 256.827L318.911 256.508L321.501 252.044C320.702 251.673 319.993 251.568 319.374 251.728C318.753 251.892 318.25 252.305 317.866 252.967C317.461 253.665 317.212 254.43 317.119 255.262L316.212 254.812C316.258 254.388 316.339 254.005 316.454 253.661C316.563 253.319 316.745 252.929 316.999 252.492ZM323.259 255.253C323.561 254.733 323.627 254.23 323.456 253.744C323.283 253.263 322.903 252.84 322.314 252.478L320.349 255.866C320.99 256.184 321.56 256.289 322.059 256.181C322.562 256.075 322.962 255.766 323.259 255.253Z" fill="black"/>
<path d="M316.993 266.786C316.806 267.061 316.614 267.294 316.418 267.486L315.597 266.826C315.83 266.605 316.013 266.396 316.147 266.2C316.488 265.699 316.567 265.145 316.385 264.54C316.2 263.938 315.791 263.453 315.157 263.084L311.682 261.064L312.32 260.126L318.797 263.891L318.27 264.666L316.998 264.076L316.967 264.121C317.232 264.596 317.369 265.062 317.377 265.519C317.385 265.976 317.257 266.398 316.993 266.786Z" fill="black"/>
<path d="M305.003 273.412C304.424 273.023 304.138 272.519 304.144 271.9C304.151 271.281 304.444 270.602 305.024 269.863C305.637 269.081 306.246 268.56 306.85 268.297L307.724 268.884C307.351 269.065 306.994 269.288 306.654 269.553C306.31 269.821 306.021 270.105 305.784 270.406C305.419 270.872 305.215 271.283 305.173 271.638C305.135 271.995 305.277 272.282 305.599 272.498C305.841 272.66 306.126 272.698 306.454 272.612C306.783 272.531 307.291 272.281 307.979 271.861C308.625 271.457 309.119 271.192 309.461 271.066C309.804 270.946 310.122 270.897 310.417 270.919C310.708 270.945 310.996 271.053 311.28 271.243C311.787 271.583 312.033 272.047 312.018 272.633C312.006 273.222 311.733 273.857 311.199 274.538C310.701 275.173 310.078 275.701 309.33 276.125L308.812 275.293C309.534 274.874 310.083 274.425 310.46 273.944C310.792 273.521 310.973 273.155 311.001 272.846C311.03 272.537 310.921 272.3 310.675 272.135C310.509 272.023 310.336 271.968 310.157 271.968C309.975 271.971 309.76 272.027 309.514 272.136C309.267 272.244 308.844 272.485 308.244 272.86C307.426 273.379 306.786 273.669 306.322 273.73C305.855 273.794 305.416 273.688 305.003 273.412Z" fill="black"/>
<path d="M69.0971 40.1364L73.1249 45.1957C73.8345 46.087 74.1231 47.0019 73.9906 47.9404C73.8581 48.8789 73.3213 49.7228 72.38 50.4721C71.4387 51.2215 70.5052 51.5452 69.5795 51.4434C68.6574 51.3387 67.8386 50.8371 67.1234 49.9387L63.1126 44.9008L64.0218 44.177L68.0836 49.279C68.6031 49.9315 69.1801 50.2905 69.8148 50.3561C70.4495 50.4216 71.1127 50.1791 71.8044 49.6284C72.464 49.1033 72.833 48.5241 72.9114 47.8909C72.9869 47.254 72.7635 46.6076 72.2413 45.9516L68.1879 40.8602L69.0971 40.1364Z" fill="black"/>
<path d="M86.1978 40.3851L83.5406 36.3318C83.2058 35.8211 82.8397 35.5161 82.4423 35.417C82.0449 35.3178 81.5985 35.4307 81.103 35.7555C80.4475 36.1852 80.0834 36.6773 80.0109 37.2316C79.9383 37.7859 80.1694 38.4709 80.7041 39.2865L82.8591 42.5738L81.91 43.196L77.8025 36.9301L78.5743 36.4242L79.2908 37.1805L79.3365 37.1505C79.3285 36.7144 79.4449 36.2975 79.6856 35.9C79.9238 35.4986 80.2583 35.1568 80.6889 34.8744C81.4436 34.3797 82.1314 34.1904 82.7524 34.3064C83.3709 34.4187 83.9425 34.875 84.4672 35.6753L87.1468 39.763L86.1978 40.3851Z" fill="black"/>
<path d="M97.7215 33.6718L97.0145 32.8422L96.9664 32.8683C96.8619 33.4591 96.6857 33.9178 96.4378 34.2443C96.1916 34.5646 95.8242 34.8574 95.3356 35.1227C94.6828 35.4771 94.0788 35.5872 93.5237 35.453C92.9725 35.3166 92.5285 34.938 92.1915 34.3172C91.4696 32.9875 92.1546 31.7133 94.2465 30.4946L95.3444 29.8519L95.1226 29.4434C94.8421 28.9267 94.5234 28.6071 94.1665 28.4846C93.8114 28.3559 93.3895 28.4241 92.9009 28.6894C92.3522 28.9873 91.8227 29.4925 91.3125 30.2051L90.5919 29.6085C90.8206 29.2561 91.1001 28.9255 91.4302 28.6167C91.7643 28.3056 92.1257 28.0446 92.5142 27.8337C93.2992 27.4076 93.9745 27.2665 94.5401 27.4106C95.1098 27.5524 95.6034 28.0079 96.0208 28.7769L98.4605 33.2706L97.7215 33.6718ZM95.087 34.192C95.7078 33.8549 96.102 33.4205 96.2697 32.8888C96.4413 32.3548 96.3608 31.7814 96.0281 31.1687L95.7052 30.5739L94.7308 31.1574C93.953 31.6159 93.4476 32.051 93.2148 32.4626C92.9838 32.8681 92.9933 33.3011 93.2433 33.7617C93.439 34.1221 93.6961 34.3378 94.0146 34.4086C94.337 34.4773 94.6945 34.4051 95.087 34.192Z" fill="black"/>
<path d="M116.369 17.2827L116.623 17.9539L115.383 18.5991C115.559 18.7031 115.74 18.8587 115.926 19.0661C116.11 19.2692 116.26 19.522 116.374 19.8246C116.634 20.5107 116.607 21.1471 116.294 21.7339C115.98 22.3207 115.414 22.7691 114.596 23.0792C114.387 23.1584 114.185 23.2156 113.988 23.251C113.627 23.6608 113.515 24.0469 113.652 24.4091C113.725 24.6008 113.858 24.7137 114.051 24.7477C114.243 24.7774 114.53 24.7196 114.914 24.5743L116.154 24.1043C116.913 23.8168 117.555 23.7561 118.081 23.9223C118.611 24.0868 118.992 24.4738 119.223 25.0832C119.517 25.8588 119.429 26.5669 118.96 27.2076C118.493 27.8525 117.663 28.4011 116.47 28.8533C115.554 29.2006 114.782 29.2982 114.154 29.1463C113.53 28.9927 113.101 28.6048 112.865 27.9826C112.703 27.5565 112.7 27.1362 112.855 26.7217C113.01 26.3073 113.313 25.951 113.766 25.6528C113.556 25.6397 113.357 25.5713 113.169 25.4477C112.985 25.3225 112.85 25.1469 112.765 24.9211C112.668 24.6654 112.651 24.4158 112.715 24.1723C112.778 23.9289 112.923 23.662 113.15 23.3715C112.731 23.3597 112.339 23.2184 111.973 22.9476C111.611 22.6752 111.343 22.3089 111.169 21.8487C110.878 21.0816 110.884 20.4042 111.188 19.8164C111.49 19.2243 112.063 18.7684 112.907 18.4486C113.273 18.3097 113.62 18.2272 113.946 18.2009L116.369 17.2827ZM113.883 27.5822C114.027 27.9615 114.295 28.1886 114.689 28.2635C115.083 28.3384 115.578 28.2628 116.175 28.0366C117.066 27.6991 117.673 27.3153 117.998 26.8853C118.328 26.458 118.407 26.0163 118.234 25.5603C118.09 25.1811 117.873 24.9613 117.582 24.9009C117.293 24.8449 116.824 24.9396 116.176 25.1851L114.904 25.6672C114.423 25.8497 114.091 26.1069 113.91 26.4388C113.729 26.7707 113.72 27.1518 113.883 27.5822ZM112.207 21.4258C112.393 21.9159 112.672 22.2341 113.044 22.3806C113.417 22.527 113.85 22.5066 114.344 22.3192C115.38 21.9267 115.707 21.2276 115.326 20.2219C114.927 19.1693 114.203 18.8417 113.155 19.239C112.656 19.428 112.324 19.7076 112.157 20.0778C111.99 20.4481 112.007 20.8974 112.207 21.4258Z" fill="black"/>
<path d="M126.537 13.9C126.856 13.8053 127.15 13.7466 127.419 13.7238L127.568 14.7777C127.251 14.8004 126.979 14.8454 126.752 14.9129C126.171 15.0854 125.743 15.4692 125.468 16.0642C125.198 16.658 125.167 17.3065 125.376 18.0099L126.52 21.8632L125.432 22.1862L123.299 15.0038L124.197 14.7373L124.717 16.0306L124.769 16.0151C124.897 15.4685 125.111 15.0127 125.411 14.6478C125.712 14.2828 126.087 14.0336 126.537 13.9Z" fill="black"/>
<path d="M140.421 18.3313L139.973 17.3375L139.92 17.3492C139.655 17.8875 139.358 18.2788 139.029 18.5233C138.703 18.7623 138.268 18.9411 137.725 19.0597C136.999 19.2181 136.389 19.1555 135.893 18.8719C135.402 18.5873 135.081 18.0999 134.93 17.4098C134.607 15.9316 135.621 14.8988 137.969 14.3115L139.203 14.0003L139.104 13.5461C138.978 12.9717 138.761 12.576 138.453 12.3588C138.147 12.1362 137.723 12.0842 137.18 12.2028C136.57 12.3359 135.921 12.6735 135.232 13.2157L134.706 12.4419C135.024 12.1672 135.385 11.9276 135.788 11.723C136.195 11.5174 136.615 11.3675 137.047 11.2732C137.92 11.0827 138.608 11.1355 139.111 11.4315C139.618 11.7265 139.965 12.3015 140.152 13.1563L141.242 18.152L140.421 18.3313ZM137.746 18.0966C138.436 17.9459 138.936 17.6386 139.245 17.1746C139.559 16.7097 139.641 16.1366 139.492 15.4554L139.348 14.7942L138.25 15.0829C137.375 15.3065 136.768 15.5835 136.43 15.9139C136.095 16.2389 135.983 16.6574 136.095 17.1695C136.183 17.5702 136.369 17.8489 136.656 18.0057C136.946 18.1615 137.31 18.1918 137.746 18.0966Z" fill="black"/>
<path d="M153.621 16.1714L152.983 11.3668C152.903 10.7615 152.705 10.328 152.39 10.0664C152.075 9.80488 151.623 9.71308 151.036 9.79107C150.259 9.89425 149.718 10.1799 149.412 10.648C149.106 11.1162 149.018 11.8336 149.146 12.8004L149.664 16.6969L148.539 16.8462L147.553 9.41924L148.467 9.29776L148.785 10.2899L148.839 10.2827C149.021 9.88621 149.307 9.56097 149.696 9.307C150.085 9.04852 150.534 8.88538 151.045 8.81759C151.939 8.69881 152.641 8.82628 153.15 9.19998C153.659 9.56916 153.977 10.2281 154.103 11.1768L154.746 16.022L153.621 16.1714Z" fill="black"/>
<path d="M174.212 15.1495C173.128 15.1462 172.288 14.8109 171.693 14.1437C171.103 13.472 170.809 12.5255 170.813 11.3041C170.817 10.0509 171.121 9.08337 171.724 8.40163C172.333 7.7199 173.195 7.38075 174.311 7.38418C174.671 7.38528 175.031 7.42512 175.391 7.5037C175.751 7.58228 176.033 7.67429 176.238 7.77974L175.886 8.74253C175.636 8.6415 175.363 8.55863 175.067 8.49392C174.771 8.42465 174.509 8.38967 174.281 8.38897C172.759 8.3843 171.995 9.35266 171.989 11.2941C171.986 12.2146 172.168 12.9216 172.536 13.4149C172.908 13.9082 173.459 14.156 174.188 14.1582C174.812 14.1602 175.453 14.0277 176.11 13.7608L176.107 14.7657C175.605 15.0239 174.973 15.1519 174.212 15.1495Z" fill="black"/>
<path d="M189.834 12.0858C189.733 13.303 189.348 14.229 188.677 14.8638C188.008 15.4941 187.132 15.7644 186.051 15.6746C185.384 15.6191 184.804 15.4132 184.312 15.0568C183.821 14.7004 183.458 14.2176 183.226 13.6083C182.993 12.999 182.909 12.3016 182.974 11.5159C183.075 10.2987 183.458 9.37704 184.123 8.7509C184.788 8.12022 185.661 7.84978 186.742 7.93959C187.787 8.02638 188.587 8.44268 189.142 9.18849C189.702 9.93468 189.933 10.9005 189.834 12.0858ZM184.146 11.6132C184.067 12.567 184.197 13.3095 184.537 13.8407C184.877 14.372 185.417 14.6684 186.157 14.7299C186.898 14.7914 187.479 14.5905 187.902 14.1272C188.329 13.6597 188.583 12.9468 188.663 11.9885C188.741 11.0393 188.608 10.3034 188.263 9.78081C187.923 9.25408 187.378 8.95958 186.628 8.89732C185.888 8.83581 185.309 9.03237 184.892 9.48701C184.475 9.94165 184.226 10.6504 184.146 11.6132Z" fill="black"/>
<path d="M206.229 18.424L207.122 13.6324C207.232 13.0455 207.188 12.5831 206.991 12.2451C206.796 11.9027 206.433 11.6822 205.905 11.5837C205.21 11.4543 204.66 11.5581 204.254 11.8951C203.848 12.232 203.568 12.8149 203.414 13.6438L202.648 17.7566L201.532 17.5487L202.425 12.7572C202.534 12.1703 202.49 11.7078 202.294 11.3699C202.098 11.0274 201.734 10.8065 201.2 10.7072C200.502 10.577 199.949 10.692 199.544 11.0522C199.144 11.4087 198.855 12.0641 198.677 13.0184L197.957 16.8826L196.841 16.6747L198.214 9.3093L199.121 9.47834L199.114 10.5202L199.168 10.5302C199.446 10.211 199.793 9.9861 200.212 9.85545C200.635 9.72563 201.084 9.70496 201.558 9.79345C202.71 10.008 203.385 10.5649 203.584 11.4641L203.637 11.4742C203.929 11.1298 204.303 10.8844 204.762 10.738C205.22 10.5916 205.716 10.5681 206.249 10.6674C207.082 10.8227 207.665 11.1538 207.997 11.6607C208.335 12.1639 208.416 12.886 208.24 13.8268L207.345 18.6318L206.229 18.424Z" fill="black"/>
<path d="M218.383 13.7176L217.014 18.3812C216.842 18.9671 216.847 19.4436 217.029 19.8105C217.211 20.1774 217.586 20.4443 218.155 20.6111C218.907 20.8319 219.516 20.7875 219.982 20.4778C220.452 20.1695 220.824 19.5496 221.098 18.6182L222.207 14.8401L223.296 15.1597L221.185 22.3486L220.287 22.0848L220.412 21.0744L220.353 21.0571C220.026 21.3458 219.636 21.5258 219.183 21.597C218.734 21.6695 218.256 21.6313 217.749 21.4824C216.875 21.2257 216.28 20.8254 215.964 20.2817C215.653 19.7392 215.632 19.011 215.9 18.0971L217.281 13.3941L218.383 13.7176Z" fill="black"/>
<path d="M233.227 26.6674L234.986 22.1513C235.208 21.5823 235.244 21.1072 235.094 20.726C234.944 20.3448 234.593 20.0467 234.041 19.8316C233.311 19.5471 232.699 19.5361 232.205 19.7987C231.712 20.0612 231.288 20.6469 230.934 21.5556L229.507 25.2182L228.45 24.8062L231.169 17.8251L232.029 18.1601L231.829 19.1826L231.88 19.2024C232.231 18.9428 232.638 18.7957 233.101 18.7611C233.566 18.7222 234.039 18.7962 234.518 18.9831C235.359 19.3107 235.913 19.761 236.178 20.3341C236.446 20.9029 236.406 21.6332 236.059 22.525L234.284 27.0793L233.227 26.6674Z" fill="black"/>
<path d="M242.276 30.6494L241.25 30.1639L244.456 23.392L245.482 23.8775L242.276 30.6494ZM245.238 21.516C245.349 21.2812 245.488 21.1376 245.654 21.0851C245.822 21.0284 245.992 21.0411 246.165 21.123C246.33 21.201 246.446 21.3238 246.513 21.4916C246.58 21.6594 246.558 21.8586 246.449 22.0892C246.34 22.3199 246.198 22.4646 246.024 22.5234C245.852 22.5781 245.684 22.5664 245.519 22.4885C245.346 22.4066 245.228 22.2827 245.165 22.1169C245.105 21.947 245.129 21.7467 245.238 21.516Z" fill="black"/>
<path d="M254.14 35.7412L254.086 35.711C253.256 36.1171 252.387 36.0642 251.477 35.5523C250.623 35.0716 250.123 34.4053 249.975 33.5532C249.831 32.7034 250.062 31.7404 250.667 30.6642C251.273 29.588 251.982 28.8861 252.794 28.5587C253.606 28.2313 254.437 28.3068 255.287 28.7852C256.172 29.2837 256.67 29.9877 256.781 30.8971L256.858 30.9407L257.081 30.4466L257.316 29.9745L258.811 27.3177L259.8 27.8744L254.582 37.1433L253.778 36.6906L254.14 35.7412ZM252.068 34.7947C252.744 35.1747 253.335 35.267 253.842 35.0716C254.356 34.8744 254.843 34.3667 255.304 33.5486L255.421 33.3402C255.942 32.4148 256.158 31.6684 256.07 31.1009C255.988 30.5316 255.609 30.057 254.934 29.6769C254.354 29.3505 253.782 29.3265 253.217 29.6049C252.659 29.8815 252.148 30.4308 251.685 31.2529C251.216 32.0868 251.014 32.8024 251.081 33.3994C251.148 33.9965 251.477 34.4616 252.068 34.7947Z" fill="black"/>
<path d="M264.931 43.7764L265.343 42.767L265.298 42.7364C264.725 42.9153 264.237 42.9697 263.833 42.8996C263.435 42.8284 263.006 42.6368 262.546 42.3248C261.931 41.9081 261.556 41.4224 261.419 40.8677C261.287 40.3156 261.419 39.7472 261.815 39.1624C262.664 37.9099 264.111 37.9323 266.155 39.2296L267.23 39.909L267.491 39.5242C267.821 39.0375 267.958 38.6075 267.903 38.2342C267.854 37.8597 267.599 37.5165 267.139 37.2046C266.622 36.8543 265.93 36.6164 265.063 36.491L265.261 35.5768C265.679 35.6179 266.101 35.714 266.527 35.8651C266.957 36.0188 267.355 36.2197 267.721 36.4677C268.461 36.9688 268.896 37.5036 269.029 38.0721C269.165 38.6432 268.987 39.291 268.496 40.0153L265.628 44.2481L264.931 43.7764ZM263.258 41.6761C263.843 42.0724 264.41 42.2227 264.959 42.1271C265.512 42.0339 265.984 41.6988 266.376 41.1216L266.755 40.5614L265.789 39.9643C265.024 39.4845 264.405 39.2359 263.933 39.2184C263.467 39.1996 263.086 39.4072 262.792 39.841C262.562 40.1806 262.489 40.508 262.573 40.8234C262.66 41.1413 262.888 41.4256 263.258 41.6761Z" fill="black"/>
<path d="M276.202 51.0539L276.155 51.0153C275.269 51.2788 274.42 51.0831 273.607 50.4281C272.844 49.8131 272.46 49.0733 272.455 48.2085C272.453 47.3466 272.84 46.4349 273.615 45.4734C274.39 44.5119 275.205 43.9367 276.06 43.7478C276.915 43.5588 277.722 43.7704 278.481 44.3825C279.272 45.0203 279.647 45.7968 279.606 46.712L279.675 46.7677L279.977 46.3173L280.286 45.8903L282.2 43.5168L283.083 44.229L276.407 52.5098L275.689 51.9306L276.202 51.0539ZM274.315 49.7785C274.919 50.2647 275.487 50.4533 276.019 50.3443C276.559 50.2346 277.123 49.8143 277.712 49.0835L277.862 48.8972C278.529 48.0705 278.865 47.37 278.871 46.7957C278.884 46.2206 278.589 45.69 277.986 45.2038C277.468 44.7861 276.908 44.668 276.305 44.8494C275.708 45.03 275.114 45.4876 274.522 46.222C273.921 46.9671 273.605 47.6395 273.572 48.2394C273.539 48.8393 273.787 49.3523 274.315 49.7785Z" fill="black"/>
<defs>
<clipPath id="clip0_8:511">
<rect width="285" height="241" fill="white" transform="translate(37 73)"/>
</clipPath>
</defs>
</svg>
