<svg width="51" height="18" viewBox="0 0 51 18" fill="none" xmlns="http://www.w3.org/2000/svg">
<path d="M5.82422 15.293L9.22266 0.9375H11.1211L11.5547 3.32812L7.93359 18H5.89453L5.82422 15.293ZM4.07812 0.9375L6.89062 15.293L6.65625 18H4.38281L0.597656 0.9375H4.07812ZM14.543 15.2344L17.3203 0.9375H20.8008L17.0273 18H14.7539L14.543 15.2344ZM12.1875 0.9375L15.6094 15.3516L15.5156 18H13.4766L9.83203 3.31641L10.3008 0.9375H12.1875ZM34.1602 15.2578V18H25.0781V15.2578H34.1602ZM26.2266 0.9375V18H22.7109V0.9375H26.2266ZM32.9766 7.88672V10.5586H25.0781V7.88672H32.9766ZM34.1484 0.9375V3.69141H25.0781V0.9375H34.1484ZM43.1484 3.85547L38.5078 18H34.7695L41.1094 0.9375H43.4883L43.1484 3.85547ZM47.0039 18L42.3516 3.85547L41.9766 0.9375H44.3789L50.7539 18H47.0039ZM46.793 11.6484V14.4023H37.7812V11.6484H46.793Z" fill="black"/>
</svg>
